<?xml version="1.0" encoding="UTF-8" standalone="no"?>
<!DOCTYPE svg PUBLIC "-//W3C//DTD SVG 1.1//EN"
 "http://www.w3.org/Graphics/SVG/1.1/DTD/svg11.dtd">
<!-- Generated by graphviz version 14.1.2 (20260126.1125)
 -->
<!-- Pages: 1 -->
<svg width="523pt" height="493pt"
 viewBox="0.00 0.00 523.00 493.00" xmlns="http://www.w3.org/2000/svg" xmlns:xlink="http://www.w3.org/1999/xlink">
<g id="graph0" class="graph" transform="scale(1 1) rotate(0) translate(4 489.2)">
<polygon fill="white" stroke="none" points="-4,4 -4,-489.2 518.56,-489.2 518.56,4 -4,4"/>
<text xml:space="preserve" text-anchor="middle" x="257.28" y="-467.9" font-family="Helvetica,sans-Serif" font-size="14.00" fill="#1a1a1a">SAR decision tree (alpha=0.05)</text>
<!-- n0 -->
<g id="node1" class="node">
<title>n0</title>
<ellipse fill="#ffd966" stroke="#b58900" stroke-width="2" cx="273.56" cy="-432.71" rx="48.15" ry="27.24"/>
<text xml:space="preserve" text-anchor="middle" x="273.56" y="-435.76" font-family="Helvetica,sans-Serif" font-size="11.00" fill="#1a1a1a">LM&#45;WX</text>
<text xml:space="preserve" text-anchor="middle" x="273.56" y="-422.26" font-family="Helvetica,sans-Serif" font-size="11.00" fill="#1a1a1a">p=0.000</text>
</g>
<!-- n1 -->
<g id="node2" class="node">
<title>n1</title>
<ellipse fill="#ffd966" stroke="#b58900" stroke-width="2" cx="195.56" cy="-317.49" rx="72.02" ry="27.24"/>
<text xml:space="preserve" text-anchor="middle" x="195.56" y="-320.54" font-family="Helvetica,sans-Serif" font-size="11.00" fill="#1a1a1a">Robust&#45;LM&#45;WX</text>
<text xml:space="preserve" text-anchor="middle" x="195.56" y="-307.04" font-family="Helvetica,sans-Serif" font-size="11.00" fill="#1a1a1a">p=0.000</text>
</g>
<!-- n0&#45;&gt;n1 -->
<g id="edge1" class="edge">
<title>n0&#45;&gt;n1</title>
<path fill="none" stroke="#4c72b0" stroke-width="2.5" d="M256.25,-406.58C245.87,-391.51 232.48,-372.08 220.92,-355.3"/>
<polygon fill="#4c72b0" stroke="#4c72b0" stroke-width="2.5" points="215.37,-347.23 224.75,-352.92 217.09,-348.42 221.66,-355.04 221.04,-355.47 220.42,-355.9 215.86,-349.27 217.33,-358.02 215.37,-347.23"/>
<text xml:space="preserve" text-anchor="middle" x="244.4" y="-371.98" font-family="Times,serif" font-size="10.00" fill="#1a1a1a">sig</text>
</g>
<!-- n4 -->
<g id="node9" class="node">
<title>n4</title>
<ellipse fill="#e8f4fd" stroke="#4c72b0" stroke-width="1.2" cx="351.56" cy="-317.49" rx="47.36" ry="18"/>
<text xml:space="preserve" text-anchor="middle" x="351.56" y="-313.79" font-family="Helvetica,sans-Serif" font-size="11.00" fill="#1a1a1a">LM&#45;Error</text>
</g>
<!-- n0&#45;&gt;n4 -->
<g id="edge8" class="edge">
<title>n0&#45;&gt;n4</title>
<path fill="none" stroke="#ced4da" stroke-dasharray="5,2" d="M290.87,-406.58C303.51,-388.25 320.59,-363.46 333.41,-344.84"/>
<polygon fill="#ced4da" stroke="#ced4da" points="336.21,-346.94 339,-336.72 330.45,-342.97 336.21,-346.94"/>
<text xml:space="preserve" text-anchor="middle" x="332.15" y="-371.98" font-family="Times,serif" font-size="10.00" fill="#adb5bd">not sig</text>
</g>
<!-- leaf0 -->
<g id="node3" class="node">
<title>leaf0</title>
<path fill="#ffd966" stroke="#b58900" stroke-width="2" d="M104.56,-229.5C104.56,-229.5 74.56,-229.5 74.56,-229.5 68.56,-229.5 62.56,-223.5 62.56,-217.5 62.56,-217.5 62.56,-205.5 62.56,-205.5 62.56,-199.5 68.56,-193.5 74.56,-193.5 74.56,-193.5 104.56,-193.5 104.56,-193.5 110.56,-193.5 116.56,-199.5 116.56,-205.5 116.56,-205.5 116.56,-217.5 116.56,-217.5 116.56,-223.5 110.56,-229.5 104.56,-229.5"/>
<text xml:space="preserve" text-anchor="middle" x="89.56" y="-207.8" font-family="Helvetica,sans-Serif" font-size="11.00" fill="#1a1a1a">SDM</text>
</g>
<!-- n1&#45;&gt;leaf0 -->
<g id="edge2" class="edge">
<title>n1&#45;&gt;leaf0</title>
<path fill="none" stroke="#4c72b0" stroke-width="2.5" d="M169.9,-291.32C153.82,-275.54 133.11,-255.22 116.75,-239.17"/>
<polygon fill="#4c72b0" stroke="#4c72b0" stroke-width="2.5" points="109.86,-232.41 120.15,-236.2 111.78,-233.24 117.52,-238.88 117,-239.41 116.47,-239.95 110.73,-234.31 113.85,-242.62 109.86,-232.41"/>
<text xml:space="preserve" text-anchor="middle" x="150.06" y="-256.75" font-family="Times,serif" font-size="10.00" fill="#1a1a1a">sig</text>
</g>
<!-- n2 -->
<g id="node4" class="node">
<title>n2</title>
<ellipse fill="#e8f4fd" stroke="#4c72b0" stroke-width="1.2" cx="195.56" cy="-211.5" rx="47.36" ry="18"/>
<text xml:space="preserve" text-anchor="middle" x="195.56" y="-207.8" font-family="Helvetica,sans-Serif" font-size="11.00" fill="#1a1a1a">LM&#45;Error</text>
</g>
<!-- n1&#45;&gt;n2 -->
<g id="edge3" class="edge">
<title>n1&#45;&gt;n2</title>
<path fill="none" stroke="#ced4da" stroke-dasharray="5,2" d="M195.56,-289.44C195.56,-274.62 195.56,-256.27 195.56,-241.2"/>
<polygon fill="#ced4da" stroke="#ced4da" points="199.06,-241.47 195.56,-231.47 192.06,-241.47 199.06,-241.47"/>
<text xml:space="preserve" text-anchor="middle" x="212.81" y="-256.75" font-family="Times,serif" font-size="10.00" fill="#adb5bd">not sig</text>
</g>
<!-- n3 -->
<g id="node5" class="node">
<title>n3</title>
<ellipse fill="#e8f4fd" stroke="#4c72b0" stroke-width="1.2" cx="76.56" cy="-114.75" rx="76.56" ry="18"/>
<text xml:space="preserve" text-anchor="middle" x="76.56" y="-111.05" font-family="Helvetica,sans-Serif" font-size="11.00" fill="#1a1a1a">Robust&#45;LM&#45;Error</text>
</g>
<!-- n2&#45;&gt;n3 -->
<g id="edge4" class="edge">
<title>n2&#45;&gt;n3</title>
<path fill="none" stroke="#ced4da" stroke-dasharray="5,2" d="M175.65,-194.64C156.77,-179.61 128.17,-156.84 106.55,-139.62"/>
<polygon fill="#ced4da" stroke="#ced4da" points="108.94,-137.05 98.94,-133.56 104.58,-142.53 108.94,-137.05"/>
<text xml:space="preserve" text-anchor="middle" x="150.69" y="-160" font-family="Times,serif" font-size="10.00" fill="#adb5bd">sig</text>
</g>
<!-- leaf3 -->
<g id="node8" class="node">
<title>leaf3</title>
<path fill="#f8f9fa" stroke="#adb5bd" d="M227.56,-132.75C227.56,-132.75 197.56,-132.75 197.56,-132.75 191.56,-132.75 185.56,-126.75 185.56,-120.75 185.56,-120.75 185.56,-108.75 185.56,-108.75 185.56,-102.75 191.56,-96.75 197.56,-96.75 197.56,-96.75 227.56,-96.75 227.56,-96.75 233.56,-96.75 239.56,-102.75 239.56,-108.75 239.56,-108.75 239.56,-120.75 239.56,-120.75 239.56,-126.75 233.56,-132.75 227.56,-132.75"/>
<text xml:space="preserve" text-anchor="middle" x="212.56" y="-111.05" font-family="Helvetica,sans-Serif" font-size="11.00" fill="#6c757d">SAR</text>
</g>
<!-- n2&#45;&gt;leaf3 -->
<g id="edge7" class="edge">
<title>n2&#45;&gt;leaf3</title>
<path fill="none" stroke="#ced4da" stroke-dasharray="5,2" d="M198.68,-193.12C201.15,-179.36 204.65,-159.87 207.51,-143.9"/>
<polygon fill="#ced4da" stroke="#ced4da" points="210.88,-144.97 209.2,-134.51 203.99,-143.73 210.88,-144.97"/>
<text xml:space="preserve" text-anchor="middle" x="222.33" y="-160" font-family="Times,serif" font-size="10.00" fill="#adb5bd">not sig</text>
</g>
<!-- leaf1 -->
<g id="node6" class="node">
<title>leaf1</title>
<path fill="#f8f9fa" stroke="#adb5bd" d="M50.11,-36C50.11,-36 15.01,-36 15.01,-36 9.01,-36 3.01,-30 3.01,-24 3.01,-24 3.01,-12 3.01,-12 3.01,-6 9.01,0 15.01,0 15.01,0 50.11,0 50.11,0 56.11,0 62.11,-6 62.11,-12 62.11,-12 62.11,-24 62.11,-24 62.11,-30 56.11,-36 50.11,-36"/>
<text xml:space="preserve" text-anchor="middle" x="32.56" y="-14.3" font-family="Helvetica,sans-Serif" font-size="11.00" fill="#6c757d">SARAR</text>
</g>
<!-- n3&#45;&gt;leaf1 -->
<g id="edge5" class="edge">
<title>n3&#45;&gt;leaf1</title>
<path fill="none" stroke="#ced4da" stroke-dasharray="5,2" d="M68.49,-96.37C62.04,-82.48 52.88,-62.75 45.42,-46.68"/>
<polygon fill="#ced4da" stroke="#ced4da" points="48.61,-45.24 41.22,-37.64 42.26,-48.19 48.61,-45.24"/>
<text xml:space="preserve" text-anchor="middle" x="64.7" y="-63.25" font-family="Times,serif" font-size="10.00" fill="#adb5bd">sig</text>
</g>
<!-- leaf2 -->
<g id="node7" class="node">
<title>leaf2</title>
<path fill="#f8f9fa" stroke="#adb5bd" d="M136.56,-36C136.56,-36 106.56,-36 106.56,-36 100.56,-36 94.56,-30 94.56,-24 94.56,-24 94.56,-12 94.56,-12 94.56,-6 100.56,0 106.56,0 106.56,0 136.56,0 136.56,0 142.56,0 148.56,-6 148.56,-12 148.56,-12 148.56,-24 148.56,-24 148.56,-30 142.56,-36 136.56,-36"/>
<text xml:space="preserve" text-anchor="middle" x="121.56" y="-14.3" font-family="Helvetica,sans-Serif" font-size="11.00" fill="#6c757d">SAR</text>
</g>
<!-- n3&#45;&gt;leaf2 -->
<g id="edge6" class="edge">
<title>n3&#45;&gt;leaf2</title>
<path fill="none" stroke="#ced4da" stroke-dasharray="5,2" d="M84.82,-96.37C91.48,-82.35 100.97,-62.37 108.64,-46.22"/>
<polygon fill="#ced4da" stroke="#ced4da" points="111.58,-48.17 112.71,-37.64 105.26,-45.17 111.58,-48.17"/>
<text xml:space="preserve" text-anchor="middle" x="119.01" y="-63.25" font-family="Times,serif" font-size="10.00" fill="#adb5bd">not sig</text>
</g>
<!-- n5 -->
<g id="node10" class="node">
<title>n5</title>
<ellipse fill="#e8f4fd" stroke="#4c72b0" stroke-width="1.2" cx="351.56" cy="-211.5" rx="76.56" ry="18"/>
<text xml:space="preserve" text-anchor="middle" x="351.56" y="-207.8" font-family="Helvetica,sans-Serif" font-size="11.00" fill="#1a1a1a">Robust&#45;LM&#45;Error</text>
</g>
<!-- n4&#45;&gt;n5 -->
<g id="edge9" class="edge">
<title>n4&#45;&gt;n5</title>
<path fill="none" stroke="#ced4da" stroke-dasharray="5,2" d="M351.56,-299.32C351.56,-283.61 351.56,-260.04 351.56,-241.43"/>
<polygon fill="#ced4da" stroke="#ced4da" points="355.06,-241.56 351.56,-231.56 348.06,-241.56 355.06,-241.56"/>
<text xml:space="preserve" text-anchor="middle" x="359.06" y="-256.75" font-family="Times,serif" font-size="10.00" fill="#adb5bd">sig</text>
</g>
<!-- leaf6 -->
<g id="node13" class="node">
<title>leaf6</title>
<path fill="#f8f9fa" stroke="#adb5bd" d="M502.56,-229.5C502.56,-229.5 472.56,-229.5 472.56,-229.5 466.56,-229.5 460.56,-223.5 460.56,-217.5 460.56,-217.5 460.56,-205.5 460.56,-205.5 460.56,-199.5 466.56,-193.5 472.56,-193.5 472.56,-193.5 502.56,-193.5 502.56,-193.5 508.56,-193.5 514.56,-199.5 514.56,-205.5 514.56,-205.5 514.56,-217.5 514.56,-217.5 514.56,-223.5 508.56,-229.5 502.56,-229.5"/>
<text xml:space="preserve" text-anchor="middle" x="487.56" y="-207.8" font-family="Helvetica,sans-Serif" font-size="11.00" fill="#6c757d">SAR</text>
</g>
<!-- n4&#45;&gt;leaf6 -->
<g id="edge12" class="edge">
<title>n4&#45;&gt;leaf6</title>
<path fill="none" stroke="#ced4da" stroke-dasharray="5,2" d="M371.92,-300.92C394.1,-283.96 429.86,-256.62 455.74,-236.83"/>
<polygon fill="#ced4da" stroke="#ced4da" points="457.77,-239.69 463.59,-230.83 453.52,-234.13 457.77,-239.69"/>
<text xml:space="preserve" text-anchor="middle" x="448.99" y="-256.75" font-family="Times,serif" font-size="10.00" fill="#adb5bd">not sig</text>
</g>
<!-- leaf4 -->
<g id="node11" class="node">
<title>leaf4</title>
<path fill="#f8f9fa" stroke="#adb5bd" d="M352.11,-132.75C352.11,-132.75 317.01,-132.75 317.01,-132.75 311.01,-132.75 305.01,-126.75 305.01,-120.75 305.01,-120.75 305.01,-108.75 305.01,-108.75 305.01,-102.75 311.01,-96.75 317.01,-96.75 317.01,-96.75 352.11,-96.75 352.11,-96.75 358.11,-96.75 364.11,-102.75 364.11,-108.75 364.11,-108.75 364.11,-120.75 364.11,-120.75 364.11,-126.75 358.11,-132.75 352.11,-132.75"/>
<text xml:space="preserve" text-anchor="middle" x="334.56" y="-111.05" font-family="Helvetica,sans-Serif" font-size="11.00" fill="#6c757d">SARAR</text>
</g>
<!-- n5&#45;&gt;leaf4 -->
<g id="edge10" class="edge">
<title>n5&#45;&gt;leaf4</title>
<path fill="none" stroke="#ced4da" stroke-dasharray="5,2" d="M348.45,-193.12C345.98,-179.36 342.48,-159.87 339.61,-143.9"/>
<polygon fill="#ced4da" stroke="#ced4da" points="343.14,-143.73 337.93,-134.51 336.25,-144.97 343.14,-143.73"/>
<text xml:space="preserve" text-anchor="middle" x="351.58" y="-160" font-family="Times,serif" font-size="10.00" fill="#adb5bd">sig</text>
</g>
<!-- leaf5 -->
<g id="node12" class="node">
<title>leaf5</title>
<path fill="#f8f9fa" stroke="#adb5bd" d="M438.56,-132.75C438.56,-132.75 408.56,-132.75 408.56,-132.75 402.56,-132.75 396.56,-126.75 396.56,-120.75 396.56,-120.75 396.56,-108.75 396.56,-108.75 396.56,-102.75 402.56,-96.75 408.56,-96.75 408.56,-96.75 438.56,-96.75 438.56,-96.75 444.56,-96.75 450.56,-102.75 450.56,-108.75 450.56,-108.75 450.56,-120.75 450.56,-120.75 450.56,-126.75 444.56,-132.75 438.56,-132.75"/>
<text xml:space="preserve" text-anchor="middle" x="423.56" y="-111.05" font-family="Helvetica,sans-Serif" font-size="11.00" fill="#6c757d">SAR</text>
</g>
<!-- n5&#45;&gt;leaf5 -->
<g id="edge11" class="edge">
<title>n5&#45;&gt;leaf5</title>
<path fill="none" stroke="#ced4da" stroke-dasharray="5,2" d="M364.44,-193.56C375.26,-179.32 390.91,-158.72 403.39,-142.29"/>
<polygon fill="#ced4da" stroke="#ced4da" points="406.14,-144.47 409.4,-134.39 400.56,-140.23 406.14,-144.47"/>
<text xml:space="preserve" text-anchor="middle" x="409.12" y="-160" font-family="Times,serif" font-size="10.00" fill="#adb5bd">not sig</text>
</g>
</g>
</svg>