<?xml version="1.0" encoding="UTF-8" standalone="no"?>
<!DOCTYPE svg PUBLIC "-//W3C//DTD SVG 1.1//EN"
 "http://www.w3.org/Graphics/SVG/1.1/DTD/svg11.dtd">
<!-- Generated by graphviz version 14.1.2 (20260126.1125)
 -->
<!-- Pages: 1 -->
<svg width="1024pt" height="610pt"
 viewBox="0.00 0.00 1024.00 610.00" xmlns="http://www.w3.org/2000/svg" xmlns:xlink="http://www.w3.org/1999/xlink">
<g id="graph0" class="graph" transform="scale(1 1) rotate(0) translate(4 605.75)">
<polygon fill="white" stroke="none" points="-4,4 -4,-605.75 1019.84,-605.75 1019.84,4 -4,4"/>
<text xml:space="preserve" text-anchor="middle" x="507.92" y="-584.45" font-family="Helvetica,sans-Serif" font-size="14.00" fill="#1a1a1a">OLS decision tree (alpha=0.05)</text>
<!-- n0 -->
<g id="node1" class="node">
<title>n0</title>
<ellipse fill="#ffd966" stroke="#b58900" stroke-width="2" cx="768.92" cy="-549.26" rx="48.15" ry="27.24"/>
<text xml:space="preserve" text-anchor="middle" x="768.92" y="-552.31" font-family="Helvetica,sans-Serif" font-size="11.00" fill="#1a1a1a">LM&#45;Lag</text>
<text xml:space="preserve" text-anchor="middle" x="768.92" y="-538.81" font-family="Helvetica,sans-Serif" font-size="11.00" fill="#1a1a1a">p=0.278</text>
</g>
<!-- n1 -->
<g id="node2" class="node">
<title>n1</title>
<ellipse fill="#e8f4fd" stroke="#4c72b0" stroke-width="1.2" cx="704.92" cy="-434.04" rx="47.36" ry="18"/>
<text xml:space="preserve" text-anchor="middle" x="704.92" y="-430.34" font-family="Helvetica,sans-Serif" font-size="11.00" fill="#1a1a1a">LM&#45;Error</text>
</g>
<!-- n0&#45;&gt;n1 -->
<g id="edge1" class="edge">
<title>n0&#45;&gt;n1</title>
<path fill="none" stroke="#ced4da" stroke-dasharray="5,2" d="M754.4,-522.57C744.18,-504.49 730.52,-480.33 720.15,-461.98"/>
<polygon fill="#ced4da" stroke="#ced4da" points="723.33,-460.49 715.36,-453.51 717.24,-463.94 723.33,-460.49"/>
<text xml:space="preserve" text-anchor="middle" x="746.34" y="-488.53" font-family="Times,serif" font-size="10.00" fill="#adb5bd">sig</text>
</g>
<!-- n7 -->
<g id="node15" class="node">
<title>n7</title>
<ellipse fill="#ffd966" stroke="#b58900" stroke-width="2" cx="832.92" cy="-434.04" rx="48.15" ry="27.24"/>
<text xml:space="preserve" text-anchor="middle" x="832.92" y="-437.09" font-family="Helvetica,sans-Serif" font-size="11.00" fill="#1a1a1a">LM&#45;Error</text>
<text xml:space="preserve" text-anchor="middle" x="832.92" y="-423.59" font-family="Helvetica,sans-Serif" font-size="11.00" fill="#1a1a1a">p=0.369</text>
</g>
<!-- n0&#45;&gt;n7 -->
<g id="edge14" class="edge">
<title>n0&#45;&gt;n7</title>
<path fill="none" stroke="#4c72b0" stroke-width="2.5" d="M783.44,-522.57C791.95,-507.51 802.84,-488.25 812.24,-471.63"/>
<polygon fill="#4c72b0" stroke="#4c72b0" stroke-width="2.5" points="816.96,-463.28 815.95,-474.2 816.65,-465.35 812.69,-472.36 812.04,-471.99 811.38,-471.62 815.34,-464.61 808.12,-469.77 816.96,-463.28"/>
<text xml:space="preserve" text-anchor="middle" x="820.09" y="-488.53" font-family="Times,serif" font-size="10.00" fill="#1a1a1a">not sig</text>
</g>
<!-- n2 -->
<g id="node3" class="node">
<title>n2</title>
<ellipse fill="#e8f4fd" stroke="#4c72b0" stroke-width="1.2" cx="585.92" cy="-328.05" rx="71.35" ry="18"/>
<text xml:space="preserve" text-anchor="middle" x="585.92" y="-324.35" font-family="Helvetica,sans-Serif" font-size="11.00" fill="#1a1a1a">Robust&#45;LM&#45;Lag</text>
</g>
<!-- n1&#45;&gt;n2 -->
<g id="edge2" class="edge">
<title>n1&#45;&gt;n2</title>
<path fill="none" stroke="#ced4da" stroke-dasharray="5,2" d="M686.59,-417.02C667.13,-400.02 636.16,-372.95 613.71,-353.33"/>
<polygon fill="#ced4da" stroke="#ced4da" points="616.23,-350.89 606.4,-346.95 611.63,-356.16 616.23,-350.89"/>
<text xml:space="preserve" text-anchor="middle" x="652.92" y="-373.3" font-family="Times,serif" font-size="10.00" fill="#adb5bd">sig</text>
</g>
<!-- leaf6 -->
<g id="node14" class="node">
<title>leaf6</title>
<path fill="#f8f9fa" stroke="#adb5bd" d="M730.92,-346.05C730.92,-346.05 700.92,-346.05 700.92,-346.05 694.92,-346.05 688.92,-340.05 688.92,-334.05 688.92,-334.05 688.92,-322.05 688.92,-322.05 688.92,-316.05 694.92,-310.05 700.92,-310.05 700.92,-310.05 730.92,-310.05 730.92,-310.05 736.92,-310.05 742.92,-316.05 742.92,-322.05 742.92,-322.05 742.92,-334.05 742.92,-334.05 742.92,-340.05 736.92,-346.05 730.92,-346.05"/>
<text xml:space="preserve" text-anchor="middle" x="715.92" y="-324.35" font-family="Helvetica,sans-Serif" font-size="11.00" fill="#6c757d">SAR</text>
</g>
<!-- n1&#45;&gt;leaf6 -->
<g id="edge13" class="edge">
<title>n1&#45;&gt;leaf6</title>
<path fill="none" stroke="#ced4da" stroke-dasharray="5,2" d="M706.74,-415.87C708.41,-400.06 710.92,-376.31 712.9,-357.64"/>
<polygon fill="#ced4da" stroke="#ced4da" points="716.37,-358.06 713.94,-347.75 709.41,-357.33 716.37,-358.06"/>
<text xml:space="preserve" text-anchor="middle" x="728.66" y="-373.3" font-family="Times,serif" font-size="10.00" fill="#adb5bd">not sig</text>
</g>
<!-- n3 -->
<g id="node4" class="node">
<title>n3</title>
<ellipse fill="#e8f4fd" stroke="#4c72b0" stroke-width="1.2" cx="493.92" cy="-231.3" rx="76.56" ry="18"/>
<text xml:space="preserve" text-anchor="middle" x="493.92" y="-227.6" font-family="Helvetica,sans-Serif" font-size="11.00" fill="#1a1a1a">Robust&#45;LM&#45;Error</text>
</g>
<!-- n2&#45;&gt;n3 -->
<g id="edge3" class="edge">
<title>n2&#45;&gt;n3</title>
<path fill="none" stroke="#ced4da" stroke-dasharray="5,2" d="M569.47,-310.11C555.3,-295.51 534.64,-274.24 518.5,-257.62"/>
<polygon fill="#ced4da" stroke="#ced4da" points="521.07,-255.23 511.59,-250.5 516.05,-260.11 521.07,-255.23"/>
<text xml:space="preserve" text-anchor="middle" x="552.93" y="-276.55" font-family="Times,serif" font-size="10.00" fill="#adb5bd">sig</text>
</g>
<!-- n5 -->
<g id="node9" class="node">
<title>n5</title>
<ellipse fill="#e8f4fd" stroke="#4c72b0" stroke-width="1.2" cx="678.92" cy="-231.3" rx="76.56" ry="18"/>
<text xml:space="preserve" text-anchor="middle" x="678.92" y="-227.6" font-family="Helvetica,sans-Serif" font-size="11.00" fill="#1a1a1a">Robust&#45;LM&#45;Error</text>
</g>
<!-- n2&#45;&gt;n5 -->
<g id="edge8" class="edge">
<title>n2&#45;&gt;n5</title>
<path fill="none" stroke="#ced4da" stroke-dasharray="5,2" d="M602.55,-310.11C616.87,-295.51 637.76,-274.24 654.07,-257.62"/>
<polygon fill="#ced4da" stroke="#ced4da" points="656.56,-260.08 661.06,-250.49 651.56,-255.18 656.56,-260.08"/>
<text xml:space="preserve" text-anchor="middle" x="655.24" y="-276.55" font-family="Times,serif" font-size="10.00" fill="#adb5bd">not sig</text>
</g>
<!-- n4 -->
<g id="node5" class="node">
<title>n4</title>
<path fill="#fff3cd" stroke="#dd8452" stroke-width="1.2" d="M230,-151.18C230,-151.18 11.92,-126.02 11.92,-126.02 5.96,-125.34 5.96,-123.96 11.92,-123.28 11.92,-123.28 230,-98.12 230,-98.12 235.96,-97.44 247.88,-97.44 253.84,-98.12 253.84,-98.12 471.92,-123.28 471.92,-123.28 477.88,-123.96 477.88,-125.34 471.92,-126.02 471.92,-126.02 253.84,-151.18 253.84,-151.18 247.88,-151.86 235.96,-151.86 230,-151.18"/>
<text xml:space="preserve" text-anchor="middle" x="241.92" y="-120.95" font-family="Helvetica,sans-Serif" font-size="11.00" fill="#1a1a1a">Robust&#45;LM&#45;Lag p &lt;= Robust&#45;LM&#45;Error p</text>
</g>
<!-- n3&#45;&gt;n4 -->
<g id="edge4" class="edge">
<title>n3&#45;&gt;n4</title>
<path fill="none" stroke="#ced4da" stroke-dasharray="5,2" d="M457.01,-214.97C416.84,-198.29 351.96,-171.35 303.94,-151.41"/>
<polygon fill="#ced4da" stroke="#ced4da" points="305.33,-148.19 294.75,-147.59 302.65,-154.66 305.33,-148.19"/>
<text xml:space="preserve" text-anchor="middle" x="397.99" y="-179.8" font-family="Times,serif" font-size="10.00" fill="#adb5bd">sig</text>
</g>
<!-- leaf2 -->
<g id="node8" class="node">
<title>leaf2</title>
<path fill="#f8f9fa" stroke="#adb5bd" d="M557.92,-142.65C557.92,-142.65 527.92,-142.65 527.92,-142.65 521.92,-142.65 515.92,-136.65 515.92,-130.65 515.92,-130.65 515.92,-118.65 515.92,-118.65 515.92,-112.65 521.92,-106.65 527.92,-106.65 527.92,-106.65 557.92,-106.65 557.92,-106.65 563.92,-106.65 569.92,-112.65 569.92,-118.65 569.92,-118.65 569.92,-130.65 569.92,-130.65 569.92,-136.65 563.92,-142.65 557.92,-142.65"/>
<text xml:space="preserve" text-anchor="middle" x="542.92" y="-120.95" font-family="Helvetica,sans-Serif" font-size="11.00" fill="#6c757d">SAR</text>
</g>
<!-- n3&#45;&gt;leaf2 -->
<g id="edge7" class="edge">
<title>n3&#45;&gt;leaf2</title>
<path fill="none" stroke="#ced4da" stroke-dasharray="5,2" d="M502.01,-213.02C509.6,-196.81 521.08,-172.3 529.95,-153.36"/>
<polygon fill="#ced4da" stroke="#ced4da" points="533.1,-154.87 534.17,-144.33 526.76,-151.9 533.1,-154.87"/>
<text xml:space="preserve" text-anchor="middle" x="535.67" y="-179.8" font-family="Times,serif" font-size="10.00" fill="#adb5bd">not sig</text>
</g>
<!-- leaf0 -->
<g id="node6" class="node">
<title>leaf0</title>
<path fill="#f8f9fa" stroke="#adb5bd" d="M213.92,-36C213.92,-36 183.92,-36 183.92,-36 177.92,-36 171.92,-30 171.92,-24 171.92,-24 171.92,-12 171.92,-12 171.92,-6 177.92,0 183.92,0 183.92,0 213.92,0 213.92,0 219.92,0 225.92,-6 225.92,-12 225.92,-12 225.92,-24 225.92,-24 225.92,-30 219.92,-36 213.92,-36"/>
<text xml:space="preserve" text-anchor="middle" x="198.92" y="-14.3" font-family="Helvetica,sans-Serif" font-size="11.00" fill="#6c757d">SAR</text>
</g>
<!-- n4&#45;&gt;leaf0 -->
<g id="edge5" class="edge">
<title>n4&#45;&gt;leaf0</title>
<path fill="none" stroke="#ced4da" stroke-dasharray="5,2" d="M231.18,-97.51C224.79,-81.97 216.7,-62.27 210.22,-46.49"/>
<polygon fill="#ced4da" stroke="#ced4da" points="213.64,-45.62 206.6,-37.7 207.17,-48.28 213.64,-45.62"/>
<text xml:space="preserve" text-anchor="middle" x="230.92" y="-63.25" font-family="Times,serif" font-size="10.00" fill="#adb5bd">true</text>
</g>
<!-- leaf1 -->
<g id="node7" class="node">
<title>leaf1</title>
<path fill="#f8f9fa" stroke="#adb5bd" d="M299.92,-36C299.92,-36 269.92,-36 269.92,-36 263.92,-36 257.92,-30 257.92,-24 257.92,-24 257.92,-12 257.92,-12 257.92,-6 263.92,0 269.92,0 269.92,0 299.92,0 299.92,0 305.92,0 311.92,-6 311.92,-12 311.92,-12 311.92,-24 311.92,-24 311.92,-30 305.92,-36 299.92,-36"/>
<text xml:space="preserve" text-anchor="middle" x="284.92" y="-14.3" font-family="Helvetica,sans-Serif" font-size="11.00" fill="#6c757d">SEM</text>
</g>
<!-- n4&#45;&gt;leaf1 -->
<g id="edge6" class="edge">
<title>n4&#45;&gt;leaf1</title>
<path fill="none" stroke="#ced4da" stroke-dasharray="5,2" d="M252.66,-97.51C259.05,-81.97 267.14,-62.27 273.62,-46.49"/>
<polygon fill="#ced4da" stroke="#ced4da" points="276.67,-48.28 277.24,-37.7 270.2,-45.62 276.67,-48.28"/>
<text xml:space="preserve" text-anchor="middle" x="279.27" y="-63.25" font-family="Times,serif" font-size="10.00" fill="#adb5bd">false</text>
</g>
<!-- leaf3 -->
<g id="node10" class="node">
<title>leaf3</title>
<path fill="#f8f9fa" stroke="#adb5bd" d="M655.92,-142.65C655.92,-142.65 625.92,-142.65 625.92,-142.65 619.92,-142.65 613.92,-136.65 613.92,-130.65 613.92,-130.65 613.92,-118.65 613.92,-118.65 613.92,-112.65 619.92,-106.65 625.92,-106.65 625.92,-106.65 655.92,-106.65 655.92,-106.65 661.92,-106.65 667.92,-112.65 667.92,-118.65 667.92,-118.65 667.92,-130.65 667.92,-130.65 667.92,-136.65 661.92,-142.65 655.92,-142.65"/>
<text xml:space="preserve" text-anchor="middle" x="640.92" y="-120.95" font-family="Helvetica,sans-Serif" font-size="11.00" fill="#6c757d">SEM</text>
</g>
<!-- n5&#45;&gt;leaf3 -->
<g id="edge9" class="edge">
<title>n5&#45;&gt;leaf3</title>
<path fill="none" stroke="#ced4da" stroke-dasharray="5,2" d="M670.79,-212.92C667.53,-205.69 663.87,-197.16 660.92,-189.3 656.63,-177.87 652.48,-165.06 649.09,-153.95"/>
<polygon fill="#ced4da" stroke="#ced4da" points="652.5,-153.14 646.28,-144.56 645.79,-155.15 652.5,-153.14"/>
<text xml:space="preserve" text-anchor="middle" x="668.42" y="-179.8" font-family="Times,serif" font-size="10.00" fill="#adb5bd">sig</text>
</g>
<!-- n6 -->
<g id="node11" class="node">
<title>n6</title>
<path fill="#fff3cd" stroke="#dd8452" stroke-width="1.2" d="M846.1,-150.46C846.1,-150.46 711.82,-126.74 711.82,-126.74 705.91,-125.69 705.91,-123.61 711.82,-122.56 711.82,-122.56 846.1,-98.84 846.1,-98.84 852.01,-97.79 863.83,-97.79 869.74,-98.84 869.74,-98.84 1004.02,-122.56 1004.02,-122.56 1009.93,-123.61 1009.93,-125.69 1004.02,-126.74 1004.02,-126.74 869.74,-150.46 869.74,-150.46 863.83,-151.51 852.01,-151.51 846.1,-150.46"/>
<text xml:space="preserve" text-anchor="middle" x="857.92" y="-120.95" font-family="Helvetica,sans-Serif" font-size="11.00" fill="#1a1a1a">LM&#45;Lag p &lt;= LM&#45;Error p</text>
</g>
<!-- n5&#45;&gt;n6 -->
<g id="edge10" class="edge">
<title>n5&#45;&gt;n6</title>
<path fill="none" stroke="#ced4da" stroke-dasharray="5,2" d="M706.5,-214.18C734.7,-197.69 779,-171.79 812.41,-152.26"/>
<polygon fill="#ced4da" stroke="#ced4da" points="813.79,-155.5 820.66,-147.44 810.26,-149.46 813.79,-155.5"/>
<text xml:space="preserve" text-anchor="middle" x="785.67" y="-179.8" font-family="Times,serif" font-size="10.00" fill="#adb5bd">not sig</text>
</g>
<!-- leaf4 -->
<g id="node12" class="node">
<title>leaf4</title>
<path fill="#f8f9fa" stroke="#adb5bd" d="M829.92,-36C829.92,-36 799.92,-36 799.92,-36 793.92,-36 787.92,-30 787.92,-24 787.92,-24 787.92,-12 787.92,-12 787.92,-6 793.92,0 799.92,0 799.92,0 829.92,0 829.92,0 835.92,0 841.92,-6 841.92,-12 841.92,-12 841.92,-24 841.92,-24 841.92,-30 835.92,-36 829.92,-36"/>
<text xml:space="preserve" text-anchor="middle" x="814.92" y="-14.3" font-family="Helvetica,sans-Serif" font-size="11.00" fill="#6c757d">SAR</text>
</g>
<!-- n6&#45;&gt;leaf4 -->
<g id="edge11" class="edge">
<title>n6&#45;&gt;leaf4</title>
<path fill="none" stroke="#ced4da" stroke-dasharray="5,2" d="M847.4,-98.05C841.02,-82.51 832.87,-62.68 826.33,-46.77"/>
<polygon fill="#ced4da" stroke="#ced4da" points="829.71,-45.8 822.68,-37.88 823.24,-48.46 829.71,-45.8"/>
<text xml:space="preserve" text-anchor="middle" x="846.92" y="-63.25" font-family="Times,serif" font-size="10.00" fill="#adb5bd">true</text>
</g>
<!-- leaf5 -->
<g id="node13" class="node">
<title>leaf5</title>
<path fill="#f8f9fa" stroke="#adb5bd" d="M915.92,-36C915.92,-36 885.92,-36 885.92,-36 879.92,-36 873.92,-30 873.92,-24 873.92,-24 873.92,-12 873.92,-12 873.92,-6 879.92,0 885.92,0 885.92,0 915.92,0 915.92,0 921.92,0 927.92,-6 927.92,-12 927.92,-12 927.92,-24 927.92,-24 927.92,-30 921.92,-36 915.92,-36"/>
<text xml:space="preserve" text-anchor="middle" x="900.92" y="-14.3" font-family="Helvetica,sans-Serif" font-size="11.00" fill="#6c757d">SEM</text>
</g>
<!-- n6&#45;&gt;leaf5 -->
<g id="edge12" class="edge">
<title>n6&#45;&gt;leaf5</title>
<path fill="none" stroke="#ced4da" stroke-dasharray="5,2" d="M868.44,-98.05C874.82,-82.51 882.97,-62.68 889.51,-46.77"/>
<polygon fill="#ced4da" stroke="#ced4da" points="892.6,-48.46 893.16,-37.88 886.13,-45.8 892.6,-48.46"/>
<text xml:space="preserve" text-anchor="middle" x="895.27" y="-63.25" font-family="Times,serif" font-size="10.00" fill="#adb5bd">false</text>
</g>
<!-- leaf7 -->
<g id="node16" class="node">
<title>leaf7</title>
<path fill="#f8f9fa" stroke="#adb5bd" d="M826.92,-346.05C826.92,-346.05 796.92,-346.05 796.92,-346.05 790.92,-346.05 784.92,-340.05 784.92,-334.05 784.92,-334.05 784.92,-322.05 784.92,-322.05 784.92,-316.05 790.92,-310.05 796.92,-310.05 796.92,-310.05 826.92,-310.05 826.92,-310.05 832.92,-310.05 838.92,-316.05 838.92,-322.05 838.92,-322.05 838.92,-334.05 838.92,-334.05 838.92,-340.05 832.92,-346.05 826.92,-346.05"/>
<text xml:space="preserve" text-anchor="middle" x="811.92" y="-324.35" font-family="Helvetica,sans-Serif" font-size="11.00" fill="#6c757d">SEM</text>
</g>
<!-- n7&#45;&gt;leaf7 -->
<g id="edge15" class="edge">
<title>n7&#45;&gt;leaf7</title>
<path fill="none" stroke="#ced4da" stroke-dasharray="5,2" d="M827.46,-405.99C824.47,-391.17 820.76,-372.82 817.72,-357.75"/>
<polygon fill="#ced4da" stroke="#ced4da" points="821.15,-357.1 815.74,-347.99 814.29,-358.48 821.15,-357.1"/>
<text xml:space="preserve" text-anchor="middle" x="829.92" y="-373.3" font-family="Times,serif" font-size="10.00" fill="#adb5bd">sig</text>
</g>
<!-- leaf8 -->
<g id="node17" class="node">
<title>leaf8</title>
<path fill="#ffd966" stroke="#b58900" stroke-width="2" d="M912.92,-346.05C912.92,-346.05 882.92,-346.05 882.92,-346.05 876.92,-346.05 870.92,-340.05 870.92,-334.05 870.92,-334.05 870.92,-322.05 870.92,-322.05 870.92,-316.05 876.92,-310.05 882.92,-310.05 882.92,-310.05 912.92,-310.05 912.92,-310.05 918.92,-310.05 924.92,-316.05 924.92,-322.05 924.92,-322.05 924.92,-334.05 924.92,-334.05 924.92,-340.05 918.92,-346.05 912.92,-346.05"/>
<text xml:space="preserve" text-anchor="middle" x="897.92" y="-324.35" font-family="Helvetica,sans-Serif" font-size="11.00" fill="#1a1a1a">OLS</text>
</g>
<!-- n7&#45;&gt;leaf8 -->
<g id="edge16" class="edge">
<title>n7&#45;&gt;leaf8</title>
<path fill="none" stroke="#4c72b0" stroke-width="2.5" d="M848.82,-407.6C858.32,-392.41 870.4,-373.08 880.2,-357.4"/>
<polygon fill="#4c72b0" stroke="#4c72b0" stroke-width="2.5" points="885.25,-349.32 883.77,-360.18 884.85,-351.37 880.59,-358.2 879.95,-357.8 879.31,-357.4 883.58,-350.58 876.13,-355.41 885.25,-349.32"/>
<text xml:space="preserve" text-anchor="middle" x="888.49" y="-373.3" font-family="Times,serif" font-size="10.00" fill="#1a1a1a">not sig</text>
</g>
</g>
</svg>