<?xml version="1.0" encoding="UTF-8" standalone="no"?>
<!DOCTYPE svg PUBLIC "-//W3C//DTD SVG 1.1//EN"
 "http://www.w3.org/Graphics/SVG/1.1/DTD/svg11.dtd">
<!-- Generated by graphviz version 14.1.2 (20260126.1125)
 -->
<!-- Pages: 1 -->
<svg width="1446pt" height="610pt"
 viewBox="0.00 0.00 1446.00 610.00" xmlns="http://www.w3.org/2000/svg" xmlns:xlink="http://www.w3.org/1999/xlink">
<g id="graph0" class="graph" transform="scale(1 1) rotate(0) translate(4 605.75)">
<polygon fill="white" stroke="none" points="-4,4 -4,-605.75 1441.92,-605.75 1441.92,4 -4,4"/>
<text xml:space="preserve" text-anchor="middle" x="718.96" y="-584.45" font-family="Helvetica,sans-Serif" font-size="14.00" fill="#1a1a1a">SLX decision tree (alpha=0.05)</text>
<!-- n0 -->
<g id="node1" class="node">
<title>n0</title>
<ellipse fill="#ffd966" stroke="#b58900" stroke-width="2" cx="1138.92" cy="-549.26" rx="48.15" ry="27.24"/>
<text xml:space="preserve" text-anchor="middle" x="1138.92" y="-552.31" font-family="Helvetica,sans-Serif" font-size="11.00" fill="#1a1a1a">LM&#45;Lag</text>
<text xml:space="preserve" text-anchor="middle" x="1138.92" y="-538.81" font-family="Helvetica,sans-Serif" font-size="11.00" fill="#1a1a1a">p=0.085</text>
</g>
<!-- n1 -->
<g id="node2" class="node">
<title>n1</title>
<ellipse fill="#e8f4fd" stroke="#4c72b0" stroke-width="1.2" cx="1026.92" cy="-434.04" rx="47.36" ry="18"/>
<text xml:space="preserve" text-anchor="middle" x="1026.92" y="-430.34" font-family="Helvetica,sans-Serif" font-size="11.00" fill="#1a1a1a">LM&#45;Error</text>
</g>
<!-- n0&#45;&gt;n1 -->
<g id="edge1" class="edge">
<title>n0&#45;&gt;n1</title>
<path fill="none" stroke="#ced4da" stroke-dasharray="5,2" d="M1115.44,-524.53C1096.56,-505.43 1070.12,-478.71 1051.06,-459.44"/>
<polygon fill="#ced4da" stroke="#ced4da" points="1053.72,-457.15 1044.19,-452.5 1048.74,-462.07 1053.72,-457.15"/>
<text xml:space="preserve" text-anchor="middle" x="1093.78" y="-488.53" font-family="Times,serif" font-size="10.00" fill="#adb5bd">sig</text>
</g>
<!-- n7 -->
<g id="node15" class="node">
<title>n7</title>
<ellipse fill="#ffd966" stroke="#b58900" stroke-width="2" cx="1250.92" cy="-434.04" rx="48.15" ry="27.24"/>
<text xml:space="preserve" text-anchor="middle" x="1250.92" y="-437.09" font-family="Helvetica,sans-Serif" font-size="11.00" fill="#1a1a1a">LM&#45;Error</text>
<text xml:space="preserve" text-anchor="middle" x="1250.92" y="-423.59" font-family="Helvetica,sans-Serif" font-size="11.00" fill="#1a1a1a">p=0.450</text>
</g>
<!-- n0&#45;&gt;n7 -->
<g id="edge14" class="edge">
<title>n0&#45;&gt;n7</title>
<path fill="none" stroke="#4c72b0" stroke-width="2.5" d="M1162.4,-524.53C1178.68,-508.07 1200.56,-485.94 1218.5,-467.81"/>
<polygon fill="#4c72b0" stroke="#4c72b0" stroke-width="2.5" points="1225.33,-460.91 1221.5,-471.18 1224.49,-462.82 1218.83,-468.54 1218.3,-468.02 1217.76,-467.49 1223.42,-461.77 1215.1,-464.85 1225.33,-460.91"/>
<text xml:space="preserve" text-anchor="middle" x="1215.53" y="-488.53" font-family="Times,serif" font-size="10.00" fill="#1a1a1a">not sig</text>
</g>
<!-- n2 -->
<g id="node3" class="node">
<title>n2</title>
<ellipse fill="#e8f4fd" stroke="#4c72b0" stroke-width="1.2" cx="812.92" cy="-328.05" rx="91.17" ry="18"/>
<text xml:space="preserve" text-anchor="middle" x="812.92" y="-324.35" font-family="Helvetica,sans-Serif" font-size="11.00" fill="#1a1a1a">Robust&#45;LM&#45;Lag&#45;SDM</text>
</g>
<!-- n1&#45;&gt;n2 -->
<g id="edge2" class="edge">
<title>n1&#45;&gt;n2</title>
<path fill="none" stroke="#ced4da" stroke-dasharray="5,2" d="M998.5,-419.23C962.24,-401.61 899.13,-370.94 856.7,-350.32"/>
<polygon fill="#ced4da" stroke="#ced4da" points="858.27,-347.2 847.75,-345.97 855.21,-353.49 858.27,-347.2"/>
<text xml:space="preserve" text-anchor="middle" x="927.42" y="-373.3" font-family="Times,serif" font-size="10.00" fill="#adb5bd">sig</text>
</g>
<!-- n6 -->
<g id="node12" class="node">
<title>n6</title>
<ellipse fill="#e8f4fd" stroke="#4c72b0" stroke-width="1.2" cx="1026.92" cy="-328.05" rx="91.17" ry="18"/>
<text xml:space="preserve" text-anchor="middle" x="1026.92" y="-324.35" font-family="Helvetica,sans-Serif" font-size="11.00" fill="#1a1a1a">Robust&#45;LM&#45;Lag&#45;SDM</text>
</g>
<!-- n1&#45;&gt;n6 -->
<g id="edge11" class="edge">
<title>n1&#45;&gt;n6</title>
<path fill="none" stroke="#ced4da" stroke-dasharray="5,2" d="M1026.92,-415.87C1026.92,-400.16 1026.92,-376.59 1026.92,-357.98"/>
<polygon fill="#ced4da" stroke="#ced4da" points="1030.42,-358.11 1026.92,-348.11 1023.42,-358.11 1030.42,-358.11"/>
<text xml:space="preserve" text-anchor="middle" x="1044.17" y="-373.3" font-family="Times,serif" font-size="10.00" fill="#adb5bd">not sig</text>
</g>
<!-- n3 -->
<g id="node4" class="node">
<title>n3</title>
<ellipse fill="#e8f4fd" stroke="#4c72b0" stroke-width="1.2" cx="594.92" cy="-231.3" rx="100.55" ry="18"/>
<text xml:space="preserve" text-anchor="middle" x="594.92" y="-227.6" font-family="Helvetica,sans-Serif" font-size="11.00" fill="#1a1a1a">Robust&#45;LM&#45;Error&#45;SDEM</text>
</g>
<!-- n2&#45;&gt;n3 -->
<g id="edge3" class="edge">
<title>n2&#45;&gt;n3</title>
<path fill="none" stroke="#ced4da" stroke-dasharray="5,2" d="M776.43,-311.19C739.71,-295.23 682.9,-270.54 642.63,-253.04"/>
<polygon fill="#ced4da" stroke="#ced4da" points="644.21,-249.91 633.65,-249.13 641.42,-256.33 644.21,-249.91"/>
<text xml:space="preserve" text-anchor="middle" x="724.47" y="-276.55" font-family="Times,serif" font-size="10.00" fill="#adb5bd">sig</text>
</g>
<!-- n5 -->
<g id="node9" class="node">
<title>n5</title>
<ellipse fill="#e8f4fd" stroke="#4c72b0" stroke-width="1.2" cx="827.92" cy="-231.3" rx="100.55" ry="18"/>
<text xml:space="preserve" text-anchor="middle" x="827.92" y="-227.6" font-family="Helvetica,sans-Serif" font-size="11.00" fill="#1a1a1a">Robust&#45;LM&#45;Error&#45;SDEM</text>
</g>
<!-- n2&#45;&gt;n5 -->
<g id="edge8" class="edge">
<title>n2&#45;&gt;n5</title>
<path fill="none" stroke="#ced4da" stroke-dasharray="5,2" d="M815.67,-309.67C817.81,-296.13 820.84,-277.04 823.34,-261.21"/>
<polygon fill="#ced4da" stroke="#ced4da" points="826.79,-261.81 824.9,-251.38 819.88,-260.71 826.79,-261.81"/>
<text xml:space="preserve" text-anchor="middle" x="838.57" y="-276.55" font-family="Times,serif" font-size="10.00" fill="#adb5bd">not sig</text>
</g>
<!-- n4 -->
<g id="node5" class="node">
<title>n4</title>
<path fill="#fff3cd" stroke="#dd8452" stroke-width="1.2" d="M292.97,-151.46C292.97,-151.46 11.95,-125.74 11.95,-125.74 5.98,-125.2 5.98,-124.1 11.95,-123.56 11.95,-123.56 292.97,-97.84 292.97,-97.84 298.94,-97.3 310.9,-97.3 316.87,-97.84 316.87,-97.84 597.89,-123.56 597.89,-123.56 603.86,-124.1 603.86,-125.2 597.89,-125.74 597.89,-125.74 316.87,-151.46 316.87,-151.46 310.9,-152 298.94,-152 292.97,-151.46"/>
<text xml:space="preserve" text-anchor="middle" x="304.92" y="-120.95" font-family="Helvetica,sans-Serif" font-size="11.00" fill="#1a1a1a">Robust&#45;LM&#45;Lag&#45;SDM p &lt;= Robust&#45;LM&#45;Error&#45;SDEM p</text>
</g>
<!-- n3&#45;&gt;n4 -->
<g id="edge4" class="edge">
<title>n3&#45;&gt;n4</title>
<path fill="none" stroke="#ced4da" stroke-dasharray="5,2" d="M551.5,-214.63C505.21,-197.93 431.16,-171.21 376.28,-151.4"/>
<polygon fill="#ced4da" stroke="#ced4da" points="377.59,-148.15 366.99,-148.05 375.21,-154.74 377.59,-148.15"/>
<text xml:space="preserve" text-anchor="middle" x="483.39" y="-179.8" font-family="Times,serif" font-size="10.00" fill="#adb5bd">sig</text>
</g>
<!-- leaf2 -->
<g id="node8" class="node">
<title>leaf2</title>
<path fill="#f8f9fa" stroke="#adb5bd" d="M683.92,-142.65C683.92,-142.65 653.92,-142.65 653.92,-142.65 647.92,-142.65 641.92,-136.65 641.92,-130.65 641.92,-130.65 641.92,-118.65 641.92,-118.65 641.92,-112.65 647.92,-106.65 653.92,-106.65 653.92,-106.65 683.92,-106.65 683.92,-106.65 689.92,-106.65 695.92,-112.65 695.92,-118.65 695.92,-118.65 695.92,-130.65 695.92,-130.65 695.92,-136.65 689.92,-142.65 683.92,-142.65"/>
<text xml:space="preserve" text-anchor="middle" x="668.92" y="-120.95" font-family="Helvetica,sans-Serif" font-size="11.00" fill="#6c757d">SDM</text>
</g>
<!-- n3&#45;&gt;leaf2 -->
<g id="edge7" class="edge">
<title>n3&#45;&gt;leaf2</title>
<path fill="none" stroke="#ced4da" stroke-dasharray="5,2" d="M607.14,-213.02C618.82,-196.51 636.58,-171.38 650.07,-152.3"/>
<polygon fill="#ced4da" stroke="#ced4da" points="652.89,-154.38 655.81,-144.19 647.18,-150.34 652.89,-154.38"/>
<text xml:space="preserve" text-anchor="middle" x="649.17" y="-179.8" font-family="Times,serif" font-size="10.00" fill="#adb5bd">not sig</text>
</g>
<!-- leaf0 -->
<g id="node6" class="node">
<title>leaf0</title>
<path fill="#f8f9fa" stroke="#adb5bd" d="M276.92,-36C276.92,-36 246.92,-36 246.92,-36 240.92,-36 234.92,-30 234.92,-24 234.92,-24 234.92,-12 234.92,-12 234.92,-6 240.92,0 246.92,0 246.92,0 276.92,0 276.92,0 282.92,0 288.92,-6 288.92,-12 288.92,-12 288.92,-24 288.92,-24 288.92,-30 282.92,-36 276.92,-36"/>
<text xml:space="preserve" text-anchor="middle" x="261.92" y="-14.3" font-family="Helvetica,sans-Serif" font-size="11.00" fill="#6c757d">SDM</text>
</g>
<!-- n4&#45;&gt;leaf0 -->
<g id="edge5" class="edge">
<title>n4&#45;&gt;leaf0</title>
<path fill="none" stroke="#ced4da" stroke-dasharray="5,2" d="M294.07,-97.24C287.74,-81.85 279.77,-62.44 273.35,-46.81"/>
<polygon fill="#ced4da" stroke="#ced4da" points="276.6,-45.53 269.57,-37.61 270.13,-48.19 276.6,-45.53"/>
<text xml:space="preserve" text-anchor="middle" x="293.92" y="-63.25" font-family="Times,serif" font-size="10.00" fill="#adb5bd">true</text>
</g>
<!-- leaf1 -->
<g id="node7" class="node">
<title>leaf1</title>
<path fill="#f8f9fa" stroke="#adb5bd" d="M362.92,-36C362.92,-36 332.92,-36 332.92,-36 326.92,-36 320.92,-30 320.92,-24 320.92,-24 320.92,-12 320.92,-12 320.92,-6 326.92,0 332.92,0 332.92,0 362.92,0 362.92,0 368.92,0 374.92,-6 374.92,-12 374.92,-12 374.92,-24 374.92,-24 374.92,-30 368.92,-36 362.92,-36"/>
<text xml:space="preserve" text-anchor="middle" x="347.92" y="-14.3" font-family="Helvetica,sans-Serif" font-size="11.00" fill="#6c757d">SDEM</text>
</g>
<!-- n4&#45;&gt;leaf1 -->
<g id="edge6" class="edge">
<title>n4&#45;&gt;leaf1</title>
<path fill="none" stroke="#ced4da" stroke-dasharray="5,2" d="M315.77,-97.24C322.1,-81.85 330.07,-62.44 336.49,-46.81"/>
<polygon fill="#ced4da" stroke="#ced4da" points="339.71,-48.19 340.27,-37.61 333.24,-45.53 339.71,-48.19"/>
<text xml:space="preserve" text-anchor="middle" x="342.27" y="-63.25" font-family="Times,serif" font-size="10.00" fill="#adb5bd">false</text>
</g>
<!-- leaf3 -->
<g id="node10" class="node">
<title>leaf3</title>
<path fill="#f8f9fa" stroke="#adb5bd" d="M799.92,-142.65C799.92,-142.65 769.92,-142.65 769.92,-142.65 763.92,-142.65 757.92,-136.65 757.92,-130.65 757.92,-130.65 757.92,-118.65 757.92,-118.65 757.92,-112.65 763.92,-106.65 769.92,-106.65 769.92,-106.65 799.92,-106.65 799.92,-106.65 805.92,-106.65 811.92,-112.65 811.92,-118.65 811.92,-118.65 811.92,-130.65 811.92,-130.65 811.92,-136.65 805.92,-142.65 799.92,-142.65"/>
<text xml:space="preserve" text-anchor="middle" x="784.92" y="-120.95" font-family="Helvetica,sans-Serif" font-size="11.00" fill="#6c757d">SDEM</text>
</g>
<!-- n5&#45;&gt;leaf3 -->
<g id="edge9" class="edge">
<title>n5&#45;&gt;leaf3</title>
<path fill="none" stroke="#ced4da" stroke-dasharray="5,2" d="M820.82,-213.02C814.16,-196.81 804.09,-172.3 796.31,-153.36"/>
<polygon fill="#ced4da" stroke="#ced4da" points="799.64,-152.28 792.61,-144.36 793.17,-154.94 799.64,-152.28"/>
<text xml:space="preserve" text-anchor="middle" x="817.77" y="-179.8" font-family="Times,serif" font-size="10.00" fill="#adb5bd">sig</text>
</g>
<!-- leaf4 -->
<g id="node11" class="node">
<title>leaf4</title>
<path fill="#f8f9fa" stroke="#adb5bd" d="M885.92,-142.65C885.92,-142.65 855.92,-142.65 855.92,-142.65 849.92,-142.65 843.92,-136.65 843.92,-130.65 843.92,-130.65 843.92,-118.65 843.92,-118.65 843.92,-112.65 849.92,-106.65 855.92,-106.65 855.92,-106.65 885.92,-106.65 885.92,-106.65 891.92,-106.65 897.92,-112.65 897.92,-118.65 897.92,-118.65 897.92,-130.65 897.92,-130.65 897.92,-136.65 891.92,-142.65 885.92,-142.65"/>
<text xml:space="preserve" text-anchor="middle" x="870.92" y="-120.95" font-family="Helvetica,sans-Serif" font-size="11.00" fill="#6c757d">SLX</text>
</g>
<!-- n5&#45;&gt;leaf4 -->
<g id="edge10" class="edge">
<title>n5&#45;&gt;leaf4</title>
<path fill="none" stroke="#ced4da" stroke-dasharray="5,2" d="M835.02,-213.02C841.68,-196.81 851.75,-172.3 859.53,-153.36"/>
<polygon fill="#ced4da" stroke="#ced4da" points="862.67,-154.94 863.23,-144.36 856.2,-152.28 862.67,-154.94"/>
<text xml:space="preserve" text-anchor="middle" x="866.67" y="-179.8" font-family="Times,serif" font-size="10.00" fill="#adb5bd">not sig</text>
</g>
<!-- leaf5 -->
<g id="node13" class="node">
<title>leaf5</title>
<path fill="#f8f9fa" stroke="#adb5bd" d="M1028.92,-249.3C1028.92,-249.3 998.92,-249.3 998.92,-249.3 992.92,-249.3 986.92,-243.3 986.92,-237.3 986.92,-237.3 986.92,-225.3 986.92,-225.3 986.92,-219.3 992.92,-213.3 998.92,-213.3 998.92,-213.3 1028.92,-213.3 1028.92,-213.3 1034.92,-213.3 1040.92,-219.3 1040.92,-225.3 1040.92,-225.3 1040.92,-237.3 1040.92,-237.3 1040.92,-243.3 1034.92,-249.3 1028.92,-249.3"/>
<text xml:space="preserve" text-anchor="middle" x="1013.92" y="-227.6" font-family="Helvetica,sans-Serif" font-size="11.00" fill="#6c757d">SDM</text>
</g>
<!-- n6&#45;&gt;leaf5 -->
<g id="edge12" class="edge">
<title>n6&#45;&gt;leaf5</title>
<path fill="none" stroke="#ced4da" stroke-dasharray="5,2" d="M1024.54,-309.67C1022.67,-296.05 1020.03,-276.8 1017.85,-260.91"/>
<polygon fill="#ced4da" stroke="#ced4da" points="1021.32,-260.5 1016.5,-251.07 1014.39,-261.45 1021.32,-260.5"/>
<text xml:space="preserve" text-anchor="middle" x="1028.7" y="-276.55" font-family="Times,serif" font-size="10.00" fill="#adb5bd">sig</text>
</g>
<!-- leaf6 -->
<g id="node14" class="node">
<title>leaf6</title>
<path fill="#f8f9fa" stroke="#adb5bd" d="M1114.92,-249.3C1114.92,-249.3 1084.92,-249.3 1084.92,-249.3 1078.92,-249.3 1072.92,-243.3 1072.92,-237.3 1072.92,-237.3 1072.92,-225.3 1072.92,-225.3 1072.92,-219.3 1078.92,-213.3 1084.92,-213.3 1084.92,-213.3 1114.92,-213.3 1114.92,-213.3 1120.92,-213.3 1126.92,-219.3 1126.92,-225.3 1126.92,-225.3 1126.92,-237.3 1126.92,-237.3 1126.92,-243.3 1120.92,-249.3 1114.92,-249.3"/>
<text xml:space="preserve" text-anchor="middle" x="1099.92" y="-227.6" font-family="Helvetica,sans-Serif" font-size="11.00" fill="#6c757d">SLX</text>
</g>
<!-- n6&#45;&gt;leaf6 -->
<g id="edge13" class="edge">
<title>n6&#45;&gt;leaf6</title>
<path fill="none" stroke="#ced4da" stroke-dasharray="5,2" d="M1040.31,-309.67C1051.32,-295.38 1067.1,-274.9 1079.65,-258.6"/>
<polygon fill="#ced4da" stroke="#ced4da" points="1082.36,-260.83 1085.69,-250.77 1076.82,-256.55 1082.36,-260.83"/>
<text xml:space="preserve" text-anchor="middle" x="1085.04" y="-276.55" font-family="Times,serif" font-size="10.00" fill="#adb5bd">not sig</text>
</g>
<!-- n8 -->
<g id="node16" class="node">
<title>n8</title>
<ellipse fill="#e8f4fd" stroke="#4c72b0" stroke-width="1.2" cx="1250.92" cy="-328.05" rx="100.55" ry="18"/>
<text xml:space="preserve" text-anchor="middle" x="1250.92" y="-324.35" font-family="Helvetica,sans-Serif" font-size="11.00" fill="#1a1a1a">Robust&#45;LM&#45;Error&#45;SDEM</text>
</g>
<!-- n7&#45;&gt;n8 -->
<g id="edge15" class="edge">
<title>n7&#45;&gt;n8</title>
<path fill="none" stroke="#ced4da" stroke-dasharray="5,2" d="M1250.92,-405.99C1250.92,-391.17 1250.92,-372.82 1250.92,-357.75"/>
<polygon fill="#ced4da" stroke="#ced4da" points="1254.42,-358.02 1250.92,-348.02 1247.42,-358.02 1254.42,-358.02"/>
<text xml:space="preserve" text-anchor="middle" x="1258.42" y="-373.3" font-family="Times,serif" font-size="10.00" fill="#adb5bd">sig</text>
</g>
<!-- leaf9 -->
<g id="node19" class="node">
<title>leaf9</title>
<path fill="#ffd966" stroke="#b58900" stroke-width="2" d="M1425.92,-346.05C1425.92,-346.05 1395.92,-346.05 1395.92,-346.05 1389.92,-346.05 1383.92,-340.05 1383.92,-334.05 1383.92,-334.05 1383.92,-322.05 1383.92,-322.05 1383.92,-316.05 1389.92,-310.05 1395.92,-310.05 1395.92,-310.05 1425.92,-310.05 1425.92,-310.05 1431.92,-310.05 1437.92,-316.05 1437.92,-322.05 1437.92,-322.05 1437.92,-334.05 1437.92,-334.05 1437.92,-340.05 1431.92,-346.05 1425.92,-346.05"/>
<text xml:space="preserve" text-anchor="middle" x="1410.92" y="-324.35" font-family="Helvetica,sans-Serif" font-size="11.00" fill="#1a1a1a">SLX</text>
</g>
<!-- n7&#45;&gt;leaf9 -->
<g id="edge18" class="edge">
<title>n7&#45;&gt;leaf9</title>
<path fill="none" stroke="#4c72b0" stroke-width="2.5" d="M1282.53,-412.49C1308.38,-395.69 1345.04,-371.87 1372.57,-353.97"/>
<polygon fill="#4c72b0" stroke="#4c72b0" stroke-width="2.5" points="1380.82,-348.61 1374.89,-357.83 1379.59,-350.3 1372.85,-354.69 1372.44,-354.06 1372.03,-353.43 1378.78,-349.05 1369.99,-350.29 1380.82,-348.61"/>
<text xml:space="preserve" text-anchor="middle" x="1362.5" y="-373.3" font-family="Times,serif" font-size="10.00" fill="#1a1a1a">not sig</text>
</g>
<!-- leaf7 -->
<g id="node17" class="node">
<title>leaf7</title>
<path fill="#f8f9fa" stroke="#adb5bd" d="M1226.92,-249.3C1226.92,-249.3 1196.92,-249.3 1196.92,-249.3 1190.92,-249.3 1184.92,-243.3 1184.92,-237.3 1184.92,-237.3 1184.92,-225.3 1184.92,-225.3 1184.92,-219.3 1190.92,-213.3 1196.92,-213.3 1196.92,-213.3 1226.92,-213.3 1226.92,-213.3 1232.92,-213.3 1238.92,-219.3 1238.92,-225.3 1238.92,-225.3 1238.92,-237.3 1238.92,-237.3 1238.92,-243.3 1232.92,-249.3 1226.92,-249.3"/>
<text xml:space="preserve" text-anchor="middle" x="1211.92" y="-227.6" font-family="Helvetica,sans-Serif" font-size="11.00" fill="#6c757d">SDEM</text>
</g>
<!-- n8&#45;&gt;leaf7 -->
<g id="edge16" class="edge">
<title>n8&#45;&gt;leaf7</title>
<path fill="none" stroke="#ced4da" stroke-dasharray="5,2" d="M1243.77,-309.67C1238.05,-295.78 1229.93,-276.05 1223.32,-259.98"/>
<polygon fill="#ced4da" stroke="#ced4da" points="1226.65,-258.88 1219.6,-250.97 1220.17,-261.55 1226.65,-258.88"/>
<text xml:space="preserve" text-anchor="middle" x="1241.26" y="-276.55" font-family="Times,serif" font-size="10.00" fill="#adb5bd">sig</text>
</g>
<!-- leaf8 -->
<g id="node18" class="node">
<title>leaf8</title>
<path fill="#f8f9fa" stroke="#adb5bd" d="M1312.92,-249.3C1312.92,-249.3 1282.92,-249.3 1282.92,-249.3 1276.92,-249.3 1270.92,-243.3 1270.92,-237.3 1270.92,-237.3 1270.92,-225.3 1270.92,-225.3 1270.92,-219.3 1276.92,-213.3 1282.92,-213.3 1282.92,-213.3 1312.92,-213.3 1312.92,-213.3 1318.92,-213.3 1324.92,-219.3 1324.92,-225.3 1324.92,-225.3 1324.92,-237.3 1324.92,-237.3 1324.92,-243.3 1318.92,-249.3 1312.92,-249.3"/>
<text xml:space="preserve" text-anchor="middle" x="1297.92" y="-227.6" font-family="Helvetica,sans-Serif" font-size="11.00" fill="#6c757d">SLX</text>
</g>
<!-- n8&#45;&gt;leaf8 -->
<g id="edge17" class="edge">
<title>n8&#45;&gt;leaf8</title>
<path fill="none" stroke="#ced4da" stroke-dasharray="5,2" d="M1259.54,-309.67C1266.5,-295.65 1276.41,-275.67 1284.42,-259.52"/>
<polygon fill="#ced4da" stroke="#ced4da" points="1287.37,-261.44 1288.68,-250.92 1281.1,-258.33 1287.37,-261.44"/>
<text xml:space="preserve" text-anchor="middle" x="1294.48" y="-276.55" font-family="Times,serif" font-size="10.00" fill="#adb5bd">not sig</text>
</g>
</g>
</svg>