<?xml version="1.0" encoding="UTF-8" standalone="no"?>
<!DOCTYPE svg PUBLIC "-//W3C//DTD SVG 1.1//EN"
 "http://www.w3.org/Graphics/SVG/1.1/DTD/svg11.dtd">
<!-- Generated by graphviz version 14.1.2 (20260126.1125)
 -->
<!-- Pages: 1 -->
<svg width="1008pt" height="647pt"
 viewBox="0.00 0.00 1008.00 647.00" xmlns="http://www.w3.org/2000/svg" xmlns:xlink="http://www.w3.org/1999/xlink">
<g id="graph0" class="graph" transform="scale(1 1) rotate(0) translate(4 642.7)">
<polygon fill="white" stroke="none" points="-4,4 -4,-642.7 1003.59,-642.7 1003.59,4 -4,4"/>
<text xml:space="preserve" text-anchor="middle" x="499.79" y="-621.4" font-family="Helvetica,sans-Serif" font-size="14.00" fill="#1a1a1a">OLS decision tree (alpha=0.05)</text>
<!-- n0 -->
<g id="node1" class="node">
<title>n0</title>
<ellipse fill="#ffd966" stroke="#b58900" stroke-width="2" cx="754.67" cy="-586.21" rx="48.15" ry="27.24"/>
<text xml:space="preserve" text-anchor="middle" x="754.67" y="-589.26" font-family="Helvetica,sans-Serif" font-size="11.00" fill="#1a1a1a">LM&#45;Lag</text>
<text xml:space="preserve" text-anchor="middle" x="754.67" y="-575.76" font-family="Helvetica,sans-Serif" font-size="11.00" fill="#1a1a1a">p=0.000</text>
</g>
<!-- n1 -->
<g id="node2" class="node">
<title>n1</title>
<ellipse fill="#ffd966" stroke="#b58900" stroke-width="2" cx="690.67" cy="-470.99" rx="48.15" ry="27.24"/>
<text xml:space="preserve" text-anchor="middle" x="690.67" y="-474.04" font-family="Helvetica,sans-Serif" font-size="11.00" fill="#1a1a1a">LM&#45;Error</text>
<text xml:space="preserve" text-anchor="middle" x="690.67" y="-460.54" font-family="Helvetica,sans-Serif" font-size="11.00" fill="#1a1a1a">p=0.000</text>
</g>
<!-- n0&#45;&gt;n1 -->
<g id="edge1" class="edge">
<title>n0&#45;&gt;n1</title>
<path fill="none" stroke="#4c72b0" stroke-width="2.5" d="M740.14,-559.52C731.63,-544.47 720.74,-525.2 711.35,-508.58"/>
<polygon fill="#4c72b0" stroke="#4c72b0" stroke-width="2.5" points="706.63,-500.23 715.47,-506.72 708.25,-501.56 712.2,-508.57 711.55,-508.94 710.9,-509.31 706.94,-502.3 707.63,-511.15 706.63,-500.23"/>
<text xml:space="preserve" text-anchor="middle" x="732.09" y="-525.48" font-family="Times,serif" font-size="10.00" fill="#1a1a1a">sig</text>
</g>
<!-- n7 -->
<g id="node15" class="node">
<title>n7</title>
<ellipse fill="#e8f4fd" stroke="#4c72b0" stroke-width="1.2" cx="818.67" cy="-470.99" rx="47.36" ry="18"/>
<text xml:space="preserve" text-anchor="middle" x="818.67" y="-467.29" font-family="Helvetica,sans-Serif" font-size="11.00" fill="#1a1a1a">LM&#45;Error</text>
</g>
<!-- n0&#45;&gt;n7 -->
<g id="edge14" class="edge">
<title>n0&#45;&gt;n7</title>
<path fill="none" stroke="#ced4da" stroke-dasharray="5,2" d="M769.19,-559.52C779.41,-541.44 793.06,-517.28 803.44,-498.93"/>
<polygon fill="#ced4da" stroke="#ced4da" points="806.35,-500.89 808.22,-490.46 800.26,-497.45 806.35,-500.89"/>
<text xml:space="preserve" text-anchor="middle" x="805.84" y="-525.48" font-family="Times,serif" font-size="10.00" fill="#adb5bd">not sig</text>
</g>
<!-- n2 -->
<g id="node3" class="node">
<title>n2</title>
<ellipse fill="#ffd966" stroke="#b58900" stroke-width="2" cx="569.67" cy="-355.76" rx="72.55" ry="27.24"/>
<text xml:space="preserve" text-anchor="middle" x="569.67" y="-358.81" font-family="Helvetica,sans-Serif" font-size="11.00" fill="#1a1a1a">Robust&#45;LM&#45;Lag</text>
<text xml:space="preserve" text-anchor="middle" x="569.67" y="-345.31" font-family="Helvetica,sans-Serif" font-size="11.00" fill="#1a1a1a">p=0.000</text>
</g>
<!-- n1&#45;&gt;n2 -->
<g id="edge2" class="edge">
<title>n1&#45;&gt;n2</title>
<path fill="none" stroke="#4c72b0" stroke-width="2.5" d="M665.89,-446.8C648.62,-430.64 625.29,-408.82 605.94,-390.7"/>
<polygon fill="#4c72b0" stroke="#4c72b0" stroke-width="2.5" points="598.74,-383.97 609.11,-387.51 600.68,-384.75 606.55,-390.25 606.04,-390.8 605.53,-391.35 599.65,-385.85 602.96,-394.08 598.74,-383.97"/>
<text xml:space="preserve" text-anchor="middle" x="641.29" y="-410.25" font-family="Times,serif" font-size="10.00" fill="#1a1a1a">sig</text>
</g>
<!-- leaf6 -->
<g id="node14" class="node">
<title>leaf6</title>
<path fill="#f8f9fa" stroke="#adb5bd" d="M716.67,-373.76C716.67,-373.76 686.67,-373.76 686.67,-373.76 680.67,-373.76 674.67,-367.76 674.67,-361.76 674.67,-361.76 674.67,-349.76 674.67,-349.76 674.67,-343.76 680.67,-337.76 686.67,-337.76 686.67,-337.76 716.67,-337.76 716.67,-337.76 722.67,-337.76 728.67,-343.76 728.67,-349.76 728.67,-349.76 728.67,-361.76 728.67,-361.76 728.67,-367.76 722.67,-373.76 716.67,-373.76"/>
<text xml:space="preserve" text-anchor="middle" x="701.67" y="-352.06" font-family="Helvetica,sans-Serif" font-size="11.00" fill="#6c757d">SAR</text>
</g>
<!-- n1&#45;&gt;leaf6 -->
<g id="edge13" class="edge">
<title>n1&#45;&gt;leaf6</title>
<path fill="none" stroke="#ced4da" stroke-dasharray="5,2" d="M693.3,-442.87C694.98,-425.54 697.17,-403.1 698.88,-385.47"/>
<polygon fill="#ced4da" stroke="#ced4da" points="702.35,-385.95 699.83,-375.66 695.38,-385.27 702.35,-385.95"/>
<text xml:space="preserve" text-anchor="middle" x="713.75" y="-410.25" font-family="Times,serif" font-size="10.00" fill="#adb5bd">not sig</text>
</g>
<!-- n3 -->
<g id="node4" class="node">
<title>n3</title>
<ellipse fill="#ffd966" stroke="#b58900" stroke-width="2" cx="476.67" cy="-240.54" rx="77.85" ry="27.24"/>
<text xml:space="preserve" text-anchor="middle" x="476.67" y="-243.59" font-family="Helvetica,sans-Serif" font-size="11.00" fill="#1a1a1a">Robust&#45;LM&#45;Error</text>
<text xml:space="preserve" text-anchor="middle" x="476.67" y="-230.09" font-family="Helvetica,sans-Serif" font-size="11.00" fill="#1a1a1a">p=0.001</text>
</g>
<!-- n2&#45;&gt;n3 -->
<g id="edge3" class="edge">
<title>n2&#45;&gt;n3</title>
<path fill="none" stroke="#4c72b0" stroke-width="2.5" d="M548.33,-328.79C535.81,-313.54 519.8,-294.05 506.09,-277.36"/>
<polygon fill="#4c72b0" stroke="#4c72b0" stroke-width="2.5" points="499.84,-269.75 509.66,-274.62 501.66,-270.78 506.76,-277 506.18,-277.47 505.6,-277.95 500.5,-271.73 502.71,-280.33 499.84,-269.75"/>
<text xml:space="preserve" text-anchor="middle" x="533.46" y="-295.03" font-family="Times,serif" font-size="10.00" fill="#1a1a1a">sig</text>
</g>
<!-- n5 -->
<g id="node9" class="node">
<title>n5</title>
<ellipse fill="#e8f4fd" stroke="#4c72b0" stroke-width="1.2" cx="662.67" cy="-240.54" rx="76.56" ry="18"/>
<text xml:space="preserve" text-anchor="middle" x="662.67" y="-236.84" font-family="Helvetica,sans-Serif" font-size="11.00" fill="#1a1a1a">Robust&#45;LM&#45;Error</text>
</g>
<!-- n2&#45;&gt;n5 -->
<g id="edge8" class="edge">
<title>n2&#45;&gt;n5</title>
<path fill="none" stroke="#ced4da" stroke-dasharray="5,2" d="M591,-328.79C606.14,-310.36 626.37,-285.72 641.48,-267.33"/>
<polygon fill="#ced4da" stroke="#ced4da" points="644.04,-269.73 647.69,-259.78 638.63,-265.28 644.04,-269.73"/>
<text xml:space="preserve" text-anchor="middle" x="636.21" y="-295.03" font-family="Times,serif" font-size="10.00" fill="#adb5bd">not sig</text>
</g>
<!-- n4 -->
<g id="node5" class="node">
<title>n4</title>
<path fill="#ffd966" stroke="#b58900" stroke-width="2" d="M221.7,-141.73C221.7,-141.73 11.96,-125.57 11.96,-125.57 5.98,-125.11 5.98,-124.19 11.96,-123.73 11.96,-123.73 221.7,-107.57 221.7,-107.57 227.68,-107.11 239.65,-107.11 245.63,-107.57 245.63,-107.57 455.37,-123.73 455.37,-123.73 461.35,-124.19 461.35,-125.11 455.37,-125.57 455.37,-125.57 245.63,-141.73 245.63,-141.73 239.65,-142.19 227.68,-142.19 221.7,-141.73"/>
<text xml:space="preserve" text-anchor="middle" x="233.67" y="-120.95" font-family="Helvetica,sans-Serif" font-size="11.00" fill="#1a1a1a">Robust&#45;LM&#45;Lag p &lt;= Robust&#45;LM&#45;Error p</text>
</g>
<!-- n3&#45;&gt;n4 -->
<g id="edge4" class="edge">
<title>n3&#45;&gt;n4</title>
<path fill="none" stroke="#4c72b0" stroke-width="2.5" d="M430.39,-217.85C386.59,-197.32 321.28,-166.71 278.09,-146.47"/>
<polygon fill="#4c72b0" stroke="#4c72b0" stroke-width="2.5" points="269.3,-142.35 280.26,-142.52 271.38,-142.5 278.67,-145.91 278.35,-146.59 278.03,-147.27 270.75,-143.86 276.44,-150.67 269.3,-142.35"/>
<text xml:space="preserve" text-anchor="middle" x="369.95" y="-179.8" font-family="Times,serif" font-size="10.00" fill="#1a1a1a">sig</text>
</g>
<!-- leaf2 -->
<g id="node8" class="node">
<title>leaf2</title>
<path fill="#f8f9fa" stroke="#adb5bd" d="M541.67,-142.65C541.67,-142.65 511.67,-142.65 511.67,-142.65 505.67,-142.65 499.67,-136.65 499.67,-130.65 499.67,-130.65 499.67,-118.65 499.67,-118.65 499.67,-112.65 505.67,-106.65 511.67,-106.65 511.67,-106.65 541.67,-106.65 541.67,-106.65 547.67,-106.65 553.67,-112.65 553.67,-118.65 553.67,-118.65 553.67,-130.65 553.67,-130.65 553.67,-136.65 547.67,-142.65 541.67,-142.65"/>
<text xml:space="preserve" text-anchor="middle" x="526.67" y="-120.95" font-family="Helvetica,sans-Serif" font-size="11.00" fill="#6c757d">SAR</text>
</g>
<!-- n3&#45;&gt;leaf2 -->
<g id="edge7" class="edge">
<title>n3&#45;&gt;leaf2</title>
<path fill="none" stroke="#ced4da" stroke-dasharray="5,2" d="M488.39,-212.84C496.23,-194.98 506.52,-171.53 514.46,-153.45"/>
<polygon fill="#ced4da" stroke="#ced4da" points="517.63,-154.93 518.45,-144.37 511.22,-152.12 517.63,-154.93"/>
<text xml:space="preserve" text-anchor="middle" x="520.42" y="-179.8" font-family="Times,serif" font-size="10.00" fill="#adb5bd">not sig</text>
</g>
<!-- leaf0 -->
<g id="node6" class="node">
<title>leaf0</title>
<path fill="#ffd966" stroke="#b58900" stroke-width="2" d="M205.67,-36C205.67,-36 175.67,-36 175.67,-36 169.67,-36 163.67,-30 163.67,-24 163.67,-24 163.67,-12 163.67,-12 163.67,-6 169.67,0 175.67,0 175.67,0 205.67,0 205.67,0 211.67,0 217.67,-6 217.67,-12 217.67,-12 217.67,-24 217.67,-24 217.67,-30 211.67,-36 205.67,-36"/>
<text xml:space="preserve" text-anchor="middle" x="190.67" y="-14.3" font-family="Helvetica,sans-Serif" font-size="11.00" fill="#1a1a1a">SAR</text>
</g>
<!-- n4&#45;&gt;leaf0 -->
<g id="edge5" class="edge">
<title>n4&#45;&gt;leaf0</title>
<path fill="none" stroke="#4c72b0" stroke-width="2.5" d="M226.57,-106.37C220.13,-90.71 210.51,-67.3 202.85,-48.65"/>
<polygon fill="#4c72b0" stroke="#4c72b0" stroke-width="2.5" points="199.08,-39.47 207.04,-47.01 200.52,-41 203.57,-48.44 202.88,-48.72 202.19,-49.01 199.13,-41.57 198.72,-50.43 199.08,-39.47"/>
<text xml:space="preserve" text-anchor="middle" x="222.67" y="-63.25" font-family="Times,serif" font-size="10.00" fill="#1a1a1a">true</text>
</g>
<!-- leaf1 -->
<g id="node7" class="node">
<title>leaf1</title>
<path fill="#f8f9fa" stroke="#adb5bd" d="M291.67,-36C291.67,-36 261.67,-36 261.67,-36 255.67,-36 249.67,-30 249.67,-24 249.67,-24 249.67,-12 249.67,-12 249.67,-6 255.67,0 261.67,0 261.67,0 291.67,0 291.67,0 297.67,0 303.67,-6 303.67,-12 303.67,-12 303.67,-24 303.67,-24 303.67,-30 297.67,-36 291.67,-36"/>
<text xml:space="preserve" text-anchor="middle" x="276.67" y="-14.3" font-family="Helvetica,sans-Serif" font-size="11.00" fill="#6c757d">SEM</text>
</g>
<!-- n4&#45;&gt;leaf1 -->
<g id="edge6" class="edge">
<title>n4&#45;&gt;leaf1</title>
<path fill="none" stroke="#ced4da" stroke-dasharray="5,2" d="M240.77,-106.37C247.43,-90.16 257.5,-65.65 265.28,-46.71"/>
<polygon fill="#ced4da" stroke="#ced4da" points="268.42,-48.29 268.98,-37.71 261.94,-45.63 268.42,-48.29"/>
<text xml:space="preserve" text-anchor="middle" x="271.02" y="-63.25" font-family="Times,serif" font-size="10.00" fill="#adb5bd">false</text>
</g>
<!-- leaf3 -->
<g id="node10" class="node">
<title>leaf3</title>
<path fill="#f8f9fa" stroke="#adb5bd" d="M639.67,-142.65C639.67,-142.65 609.67,-142.65 609.67,-142.65 603.67,-142.65 597.67,-136.65 597.67,-130.65 597.67,-130.65 597.67,-118.65 597.67,-118.65 597.67,-112.65 603.67,-106.65 609.67,-106.65 609.67,-106.65 639.67,-106.65 639.67,-106.65 645.67,-106.65 651.67,-112.65 651.67,-118.65 651.67,-118.65 651.67,-130.65 651.67,-130.65 651.67,-136.65 645.67,-142.65 639.67,-142.65"/>
<text xml:space="preserve" text-anchor="middle" x="624.67" y="-120.95" font-family="Helvetica,sans-Serif" font-size="11.00" fill="#6c757d">SEM</text>
</g>
<!-- n5&#45;&gt;leaf3 -->
<g id="edge9" class="edge">
<title>n5&#45;&gt;leaf3</title>
<path fill="none" stroke="#ced4da" stroke-dasharray="5,2" d="M656.81,-222.34C653.52,-212.65 649.34,-200.3 645.67,-189.3 641.78,-177.67 637.53,-164.83 633.88,-153.74"/>
<polygon fill="#ced4da" stroke="#ced4da" points="637.26,-152.8 630.81,-144.39 630.61,-154.98 637.26,-152.8"/>
<text xml:space="preserve" text-anchor="middle" x="653.17" y="-179.8" font-family="Times,serif" font-size="10.00" fill="#adb5bd">sig</text>
</g>
<!-- n6 -->
<g id="node11" class="node">
<title>n6</title>
<path fill="#fff3cd" stroke="#dd8452" stroke-width="1.2" d="M829.85,-150.46C829.85,-150.46 695.56,-126.74 695.56,-126.74 689.66,-125.69 689.66,-123.61 695.56,-122.56 695.56,-122.56 829.85,-98.84 829.85,-98.84 835.76,-97.79 847.58,-97.79 853.48,-98.84 853.48,-98.84 987.77,-122.56 987.77,-122.56 993.68,-123.61 993.68,-125.69 987.77,-126.74 987.77,-126.74 853.48,-150.46 853.48,-150.46 847.58,-151.51 835.76,-151.51 829.85,-150.46"/>
<text xml:space="preserve" text-anchor="middle" x="841.67" y="-120.95" font-family="Helvetica,sans-Serif" font-size="11.00" fill="#1a1a1a">LM&#45;Lag p &lt;= LM&#45;Error p</text>
</g>
<!-- n5&#45;&gt;n6 -->
<g id="edge10" class="edge">
<title>n5&#45;&gt;n6</title>
<path fill="none" stroke="#ced4da" stroke-dasharray="5,2" d="M688.31,-223.22C717.12,-204.89 764.34,-174.85 798.78,-152.93"/>
<polygon fill="#ced4da" stroke="#ced4da" points="800.3,-156.12 806.86,-147.8 796.54,-150.21 800.3,-156.12"/>
<text xml:space="preserve" text-anchor="middle" x="774.78" y="-179.8" font-family="Times,serif" font-size="10.00" fill="#adb5bd">not sig</text>
</g>
<!-- leaf4 -->
<g id="node12" class="node">
<title>leaf4</title>
<path fill="#f8f9fa" stroke="#adb5bd" d="M813.67,-36C813.67,-36 783.67,-36 783.67,-36 777.67,-36 771.67,-30 771.67,-24 771.67,-24 771.67,-12 771.67,-12 771.67,-6 777.67,0 783.67,0 783.67,0 813.67,0 813.67,0 819.67,0 825.67,-6 825.67,-12 825.67,-12 825.67,-24 825.67,-24 825.67,-30 819.67,-36 813.67,-36"/>
<text xml:space="preserve" text-anchor="middle" x="798.67" y="-14.3" font-family="Helvetica,sans-Serif" font-size="11.00" fill="#6c757d">SAR</text>
</g>
<!-- n6&#45;&gt;leaf4 -->
<g id="edge11" class="edge">
<title>n6&#45;&gt;leaf4</title>
<path fill="none" stroke="#ced4da" stroke-dasharray="5,2" d="M831.15,-98.05C824.76,-82.51 816.61,-62.68 810.08,-46.77"/>
<polygon fill="#ced4da" stroke="#ced4da" points="813.46,-45.8 806.42,-37.88 806.99,-48.46 813.46,-45.8"/>
<text xml:space="preserve" text-anchor="middle" x="830.67" y="-63.25" font-family="Times,serif" font-size="10.00" fill="#adb5bd">true</text>
</g>
<!-- leaf5 -->
<g id="node13" class="node">
<title>leaf5</title>
<path fill="#f8f9fa" stroke="#adb5bd" d="M899.67,-36C899.67,-36 869.67,-36 869.67,-36 863.67,-36 857.67,-30 857.67,-24 857.67,-24 857.67,-12 857.67,-12 857.67,-6 863.67,0 869.67,0 869.67,0 899.67,0 899.67,0 905.67,0 911.67,-6 911.67,-12 911.67,-12 911.67,-24 911.67,-24 911.67,-30 905.67,-36 899.67,-36"/>
<text xml:space="preserve" text-anchor="middle" x="884.67" y="-14.3" font-family="Helvetica,sans-Serif" font-size="11.00" fill="#6c757d">SEM</text>
</g>
<!-- n6&#45;&gt;leaf5 -->
<g id="edge12" class="edge">
<title>n6&#45;&gt;leaf5</title>
<path fill="none" stroke="#ced4da" stroke-dasharray="5,2" d="M852.19,-98.05C858.57,-82.51 866.72,-62.68 873.26,-46.77"/>
<polygon fill="#ced4da" stroke="#ced4da" points="876.35,-48.46 876.91,-37.88 869.87,-45.8 876.35,-48.46"/>
<text xml:space="preserve" text-anchor="middle" x="879.02" y="-63.25" font-family="Times,serif" font-size="10.00" fill="#adb5bd">false</text>
</g>
<!-- leaf7 -->
<g id="node16" class="node">
<title>leaf7</title>
<path fill="#f8f9fa" stroke="#adb5bd" d="M812.67,-373.76C812.67,-373.76 782.67,-373.76 782.67,-373.76 776.67,-373.76 770.67,-367.76 770.67,-361.76 770.67,-361.76 770.67,-349.76 770.67,-349.76 770.67,-343.76 776.67,-337.76 782.67,-337.76 782.67,-337.76 812.67,-337.76 812.67,-337.76 818.67,-337.76 824.67,-343.76 824.67,-349.76 824.67,-349.76 824.67,-361.76 824.67,-361.76 824.67,-367.76 818.67,-373.76 812.67,-373.76"/>
<text xml:space="preserve" text-anchor="middle" x="797.67" y="-352.06" font-family="Helvetica,sans-Serif" font-size="11.00" fill="#6c757d">SEM</text>
</g>
<!-- n7&#45;&gt;leaf7 -->
<g id="edge15" class="edge">
<title>n7&#45;&gt;leaf7</title>
<path fill="none" stroke="#ced4da" stroke-dasharray="5,2" d="M815.48,-452.79C812.16,-434.92 806.92,-406.64 802.98,-385.39"/>
<polygon fill="#ced4da" stroke="#ced4da" points="806.43,-384.8 801.16,-375.61 799.54,-386.08 806.43,-384.8"/>
<text xml:space="preserve" text-anchor="middle" x="816.3" y="-410.25" font-family="Times,serif" font-size="10.00" fill="#adb5bd">sig</text>
</g>
<!-- leaf8 -->
<g id="node17" class="node">
<title>leaf8</title>
<path fill="#f8f9fa" stroke="#adb5bd" d="M898.67,-373.76C898.67,-373.76 868.67,-373.76 868.67,-373.76 862.67,-373.76 856.67,-367.76 856.67,-361.76 856.67,-361.76 856.67,-349.76 856.67,-349.76 856.67,-343.76 862.67,-337.76 868.67,-337.76 868.67,-337.76 898.67,-337.76 898.67,-337.76 904.67,-337.76 910.67,-343.76 910.67,-349.76 910.67,-349.76 910.67,-361.76 910.67,-361.76 910.67,-367.76 904.67,-373.76 898.67,-373.76"/>
<text xml:space="preserve" text-anchor="middle" x="883.67" y="-352.06" font-family="Helvetica,sans-Serif" font-size="11.00" fill="#6c757d">OLS</text>
</g>
<!-- n7&#45;&gt;leaf8 -->
<g id="edge16" class="edge">
<title>n7&#45;&gt;leaf8</title>
<path fill="none" stroke="#ced4da" stroke-dasharray="5,2" d="M828.54,-452.79C839.04,-434.5 855.79,-405.32 868.08,-383.92"/>
<polygon fill="#ced4da" stroke="#ced4da" points="871,-385.85 872.95,-375.43 864.93,-382.36 871,-385.85"/>
<text xml:space="preserve" text-anchor="middle" x="870.37" y="-410.25" font-family="Times,serif" font-size="10.00" fill="#adb5bd">not sig</text>
</g>
</g>
</svg>