<?xml version="1.0" encoding="UTF-8" standalone="no"?>
<!DOCTYPE svg PUBLIC "-//W3C//DTD SVG 1.1//EN"
 "http://www.w3.org/Graphics/SVG/1.1/DTD/svg11.dtd">
<!-- Generated by graphviz version 14.1.2 (20260126.1125)
 -->
<!-- Pages: 1 -->
<svg width="336pt" height="350pt"
 viewBox="0.00 0.00 336.00 350.00" xmlns="http://www.w3.org/2000/svg" xmlns:xlink="http://www.w3.org/1999/xlink">
<g id="graph0" class="graph" transform="scale(1 1) rotate(0) translate(4 346.49)">
<polygon fill="white" stroke="none" points="-4,4 -4,-346.49 332.06,-346.49 332.06,4 -4,4"/>
<text xml:space="preserve" text-anchor="middle" x="164.03" y="-325.19" font-family="Times,serif" font-size="14.00">SAR decision tree (alpha=0.05)</text>
<!-- n0 -->
<g id="node1" class="node">
<title>n0</title>
<ellipse fill="#ffd966" stroke="black" stroke-width="2" cx="140.06" cy="-292.5" rx="44.19" ry="24.75"/>
<text xml:space="preserve" text-anchor="middle" x="140.06" y="-295.55" font-family="Helvetica,sans-Serif" font-size="11.00">LM&#45;Error</text>
<text xml:space="preserve" text-anchor="middle" x="140.06" y="-282.05" font-family="Helvetica,sans-Serif" font-size="11.00">p=0.000</text>
</g>
<!-- n1 -->
<g id="node2" class="node">
<title>n1</title>
<ellipse fill="#ffd966" stroke="black" stroke-width="2" cx="68.06" cy="-194.25" rx="68.06" ry="24.75"/>
<text xml:space="preserve" text-anchor="middle" x="68.06" y="-197.3" font-family="Helvetica,sans-Serif" font-size="11.00">Robust&#45;LM&#45;WX</text>
<text xml:space="preserve" text-anchor="middle" x="68.06" y="-183.8" font-family="Helvetica,sans-Serif" font-size="11.00">p=0.000</text>
</g>
<!-- n0&#45;&gt;n1 -->
<g id="edge1" class="edge">
<title>n0&#45;&gt;n1</title>
<path fill="none" stroke="#cc3333" stroke-width="2" d="M123.36,-269.17C114.38,-257.17 103.12,-242.12 93.11,-228.74"/>
<polygon fill="#cc3333" stroke="#cc3333" stroke-width="2" points="96.03,-226.79 87.23,-220.88 90.42,-230.98 96.03,-226.79"/>
<text xml:space="preserve" text-anchor="middle" x="115.49" y="-240.25" font-family="Helvetica,sans-Serif" font-size="10.00">sig</text>
</g>
<!-- n2 -->
<g id="node5" class="node">
<title>n2</title>
<ellipse fill="white" stroke="black" cx="214.06" cy="-194.25" rx="60" ry="18"/>
<text xml:space="preserve" text-anchor="middle" x="214.06" y="-190.55" font-family="Helvetica,sans-Serif" font-size="11.00">Robust&#45;LM&#45;WX</text>
</g>
<!-- n0&#45;&gt;n2 -->
<g id="edge4" class="edge">
<title>n0&#45;&gt;n2</title>
<path fill="none" stroke="#888888" d="M156.85,-269.66C167.94,-255.23 182.52,-236.27 194.19,-221.1"/>
<polygon fill="#888888" stroke="#888888" points="196.77,-223.47 200.09,-213.41 191.22,-219.21 196.77,-223.47"/>
<text xml:space="preserve" text-anchor="middle" x="197.99" y="-240.25" font-family="Helvetica,sans-Serif" font-size="10.00">not sig</text>
</g>
<!-- leaf0 -->
<g id="node3" class="node">
<title>leaf0</title>
<polygon fill="#9be29b" stroke="black" stroke-width="2" points="60.06,-120.75 6.06,-120.75 6.06,-84.75 60.06,-84.75 60.06,-120.75"/>
<text xml:space="preserve" text-anchor="middle" x="33.06" y="-99.05" font-family="Helvetica,sans-Serif" font-size="11.00">SDM</text>
</g>
<!-- n1&#45;&gt;leaf0 -->
<g id="edge2" class="edge">
<title>n1&#45;&gt;leaf0</title>
<path fill="none" stroke="#cc3333" stroke-width="2" d="M58.68,-169.26C54.31,-158.09 49.07,-144.68 44.47,-132.92"/>
<polygon fill="#cc3333" stroke="#cc3333" stroke-width="2" points="47.8,-131.85 40.9,-123.81 41.29,-134.4 47.8,-131.85"/>
<text xml:space="preserve" text-anchor="middle" x="58.73" y="-142" font-family="Helvetica,sans-Serif" font-size="10.00">sig</text>
</g>
<!-- leaf1 -->
<g id="node4" class="node">
<title>leaf1</title>
<polygon fill="#f0f0f0" stroke="black" points="132.06,-120.75 78.06,-120.75 78.06,-84.75 132.06,-84.75 132.06,-120.75"/>
<text xml:space="preserve" text-anchor="middle" x="105.06" y="-99.05" font-family="Helvetica,sans-Serif" font-size="11.00">SARAR</text>
</g>
<!-- n1&#45;&gt;leaf1 -->
<g id="edge3" class="edge">
<title>n1&#45;&gt;leaf1</title>
<path fill="none" stroke="#888888" d="M77.78,-169.73C82.6,-158.08 88.45,-143.92 93.5,-131.71"/>
<polygon fill="#888888" stroke="#888888" points="96.69,-133.15 97.28,-122.57 90.22,-130.47 96.69,-133.15"/>
<text xml:space="preserve" text-anchor="middle" x="106.37" y="-142" font-family="Helvetica,sans-Serif" font-size="10.00">not sig</text>
</g>
<!-- leaf2 -->
<g id="node6" class="node">
<title>leaf2</title>
<polygon fill="#f0f0f0" stroke="black" points="213.06,-120.75 159.06,-120.75 159.06,-84.75 213.06,-84.75 213.06,-120.75"/>
<text xml:space="preserve" text-anchor="middle" x="186.06" y="-99.05" font-family="Helvetica,sans-Serif" font-size="11.00">SDM</text>
</g>
<!-- n2&#45;&gt;leaf2 -->
<g id="edge5" class="edge">
<title>n2&#45;&gt;leaf2</title>
<path fill="none" stroke="#888888" d="M208.66,-175.99C204.75,-163.49 199.37,-146.31 194.85,-131.84"/>
<polygon fill="#888888" stroke="#888888" points="198.22,-130.9 191.89,-122.4 191.54,-132.99 198.22,-130.9"/>
<text xml:space="preserve" text-anchor="middle" x="208.02" y="-142" font-family="Helvetica,sans-Serif" font-size="10.00">sig</text>
</g>
<!-- n3 -->
<g id="node7" class="node">
<title>n3</title>
<ellipse fill="white" stroke="black" cx="265.06" cy="-102.75" rx="33.82" ry="18"/>
<text xml:space="preserve" text-anchor="middle" x="265.06" y="-99.05" font-family="Helvetica,sans-Serif" font-size="11.00">LM&#45;WX</text>
</g>
<!-- n2&#45;&gt;n3 -->
<g id="edge6" class="edge">
<title>n2&#45;&gt;n3</title>
<path fill="none" stroke="#888888" d="M223.65,-176.41C231.06,-163.41 241.45,-145.18 249.97,-130.23"/>
<polygon fill="#888888" stroke="#888888" points="252.85,-132.24 254.76,-121.82 246.77,-128.78 252.85,-132.24"/>
<text xml:space="preserve" text-anchor="middle" x="260.63" y="-142" font-family="Helvetica,sans-Serif" font-size="10.00">not sig</text>
</g>
<!-- leaf3 -->
<g id="node8" class="node">
<title>leaf3</title>
<polygon fill="#f0f0f0" stroke="black" points="256.06,-36 202.06,-36 202.06,0 256.06,0 256.06,-36"/>
<text xml:space="preserve" text-anchor="middle" x="229.06" y="-14.3" font-family="Helvetica,sans-Serif" font-size="11.00">SDM</text>
</g>
<!-- n3&#45;&gt;leaf3 -->
<g id="edge7" class="edge">
<title>n3&#45;&gt;leaf3</title>
<path fill="none" stroke="#888888" d="M257.77,-85C253.01,-74.05 246.66,-59.46 241.15,-46.79"/>
<polygon fill="#888888" stroke="#888888" points="244.38,-45.45 237.18,-37.68 237.96,-48.24 244.38,-45.45"/>
<text xml:space="preserve" text-anchor="middle" x="256.34" y="-57.25" font-family="Helvetica,sans-Serif" font-size="10.00">sig</text>
</g>
<!-- leaf4 -->
<g id="node9" class="node">
<title>leaf4</title>
<polygon fill="#f0f0f0" stroke="black" points="328.06,-36 274.06,-36 274.06,0 328.06,0 328.06,-36"/>
<text xml:space="preserve" text-anchor="middle" x="301.06" y="-14.3" font-family="Helvetica,sans-Serif" font-size="11.00">SAR</text>
</g>
<!-- n3&#45;&gt;leaf4 -->
<g id="edge8" class="edge">
<title>n3&#45;&gt;leaf4</title>
<path fill="none" stroke="#888888" d="M272.34,-85C277.11,-74.05 283.46,-59.46 288.97,-46.79"/>
<polygon fill="#888888" stroke="#888888" points="292.15,-48.24 292.93,-37.68 285.73,-45.45 292.15,-48.24"/>
<text xml:space="preserve" text-anchor="middle" x="301.71" y="-57.25" font-family="Helvetica,sans-Serif" font-size="10.00">not sig</text>
</g>
</g>
</svg>