<?xml version="1.0" encoding="UTF-8" standalone="no"?>
<!DOCTYPE svg PUBLIC "-//W3C//DTD SVG 1.1//EN"
 "http://www.w3.org/Graphics/SVG/1.1/DTD/svg11.dtd">
<!-- Generated by graphviz version 14.1.2 (20260126.1125)
 -->
<!-- Pages: 1 -->
<svg width="340pt" height="364pt"
 viewBox="0.00 0.00 340.00 364.00" xmlns="http://www.w3.org/2000/svg" xmlns:xlink="http://www.w3.org/1999/xlink">
<g id="graph0" class="graph" transform="scale(1 1) rotate(0) translate(4 359.99)">
<polygon fill="white" stroke="none" points="-4,4 -4,-359.99 336,-359.99 336,4 -4,4"/>
<text xml:space="preserve" text-anchor="middle" x="166" y="-338.69" font-family="Times,serif" font-size="14.00">SAR decision tree (alpha=0.05)</text>
<!-- n0 -->
<g id="node1" class="node">
<title>n0</title>
<ellipse fill="#ffd966" stroke="black" stroke-width="2" cx="134" cy="-305.99" rx="44.19" ry="24.75"/>
<text xml:space="preserve" text-anchor="middle" x="134" y="-309.04" font-family="Helvetica,sans-Serif" font-size="11.00">LM&#45;Error</text>
<text xml:space="preserve" text-anchor="middle" x="134" y="-295.54" font-family="Helvetica,sans-Serif" font-size="11.00">p=0.358</text>
</g>
<!-- n1 -->
<g id="node2" class="node">
<title>n1</title>
<ellipse fill="white" stroke="black" cx="62" cy="-207.75" rx="60" ry="18"/>
<text xml:space="preserve" text-anchor="middle" x="62" y="-204.05" font-family="Helvetica,sans-Serif" font-size="11.00">Robust&#45;LM&#45;WX</text>
</g>
<!-- n0&#45;&gt;n1 -->
<g id="edge1" class="edge">
<title>n0&#45;&gt;n1</title>
<path fill="none" stroke="#888888" d="M117.3,-282.67C106.5,-268.23 92.4,-249.39 81.15,-234.34"/>
<polygon fill="#888888" stroke="#888888" points="84.26,-232.66 75.47,-226.75 78.66,-236.85 84.26,-232.66"/>
<text xml:space="preserve" text-anchor="middle" x="109.44" y="-253.74" font-family="Helvetica,sans-Serif" font-size="10.00">sig</text>
</g>
<!-- n2 -->
<g id="node5" class="node">
<title>n2</title>
<ellipse fill="#ffd966" stroke="black" stroke-width="2" cx="208" cy="-207.75" rx="68.06" ry="24.75"/>
<text xml:space="preserve" text-anchor="middle" x="208" y="-210.8" font-family="Helvetica,sans-Serif" font-size="11.00">Robust&#45;LM&#45;WX</text>
<text xml:space="preserve" text-anchor="middle" x="208" y="-197.3" font-family="Helvetica,sans-Serif" font-size="11.00">p=0.170</text>
</g>
<!-- n0&#45;&gt;n2 -->
<g id="edge4" class="edge">
<title>n0&#45;&gt;n2</title>
<path fill="none" stroke="#cc3333" stroke-width="2" d="M150.79,-283.15C160.17,-270.96 172.05,-255.51 182.55,-241.85"/>
<polygon fill="#cc3333" stroke="#cc3333" stroke-width="2" points="185.08,-244.3 188.4,-234.24 179.53,-240.04 185.08,-244.3"/>
<text xml:space="preserve" text-anchor="middle" x="191.93" y="-253.74" font-family="Helvetica,sans-Serif" font-size="10.00">not sig</text>
</g>
<!-- leaf0 -->
<g id="node3" class="node">
<title>leaf0</title>
<polygon fill="#f0f0f0" stroke="black" points="54,-127.5 0,-127.5 0,-91.5 54,-91.5 54,-127.5"/>
<text xml:space="preserve" text-anchor="middle" x="27" y="-105.8" font-family="Helvetica,sans-Serif" font-size="11.00">SDM</text>
</g>
<!-- n1&#45;&gt;leaf0 -->
<g id="edge2" class="edge">
<title>n1&#45;&gt;leaf0</title>
<path fill="none" stroke="#888888" d="M55.74,-189.54C50.6,-175.39 43.21,-155.07 37.21,-138.57"/>
<polygon fill="#888888" stroke="#888888" points="40.55,-137.51 33.84,-129.3 33.97,-139.9 40.55,-137.51"/>
<text xml:space="preserve" text-anchor="middle" x="53.72" y="-155.5" font-family="Helvetica,sans-Serif" font-size="10.00">sig</text>
</g>
<!-- leaf1 -->
<g id="node4" class="node">
<title>leaf1</title>
<polygon fill="#f0f0f0" stroke="black" points="126,-127.5 72,-127.5 72,-91.5 126,-91.5 126,-127.5"/>
<text xml:space="preserve" text-anchor="middle" x="99" y="-105.8" font-family="Helvetica,sans-Serif" font-size="11.00">SARAR</text>
</g>
<!-- n1&#45;&gt;leaf1 -->
<g id="edge3" class="edge">
<title>n1&#45;&gt;leaf1</title>
<path fill="none" stroke="#888888" d="M68.61,-189.54C74.05,-175.39 81.87,-155.07 88.21,-138.57"/>
<polygon fill="#888888" stroke="#888888" points="91.45,-139.88 91.77,-129.29 84.92,-137.37 91.45,-139.88"/>
<text xml:space="preserve" text-anchor="middle" x="99.22" y="-155.5" font-family="Helvetica,sans-Serif" font-size="10.00">not sig</text>
</g>
<!-- leaf2 -->
<g id="node6" class="node">
<title>leaf2</title>
<polygon fill="#f0f0f0" stroke="black" points="207,-127.5 153,-127.5 153,-91.5 207,-91.5 207,-127.5"/>
<text xml:space="preserve" text-anchor="middle" x="180" y="-105.8" font-family="Helvetica,sans-Serif" font-size="11.00">SDM</text>
</g>
<!-- n2&#45;&gt;leaf2 -->
<g id="edge5" class="edge">
<title>n2&#45;&gt;leaf2</title>
<path fill="none" stroke="#888888" d="M201.08,-182.95C197.21,-169.65 192.36,-152.97 188.28,-138.97"/>
<polygon fill="#888888" stroke="#888888" points="191.66,-138.05 185.51,-129.43 184.94,-140.01 191.66,-138.05"/>
<text xml:space="preserve" text-anchor="middle" x="202.8" y="-155.5" font-family="Helvetica,sans-Serif" font-size="10.00">sig</text>
</g>
<!-- n3 -->
<g id="node7" class="node">
<title>n3</title>
<ellipse fill="#ffd966" stroke="black" stroke-width="2" cx="269" cy="-109.5" rx="44.19" ry="24.75"/>
<text xml:space="preserve" text-anchor="middle" x="269" y="-112.55" font-family="Helvetica,sans-Serif" font-size="11.00">LM&#45;WX</text>
<text xml:space="preserve" text-anchor="middle" x="269" y="-99.05" font-family="Helvetica,sans-Serif" font-size="11.00">p=0.332</text>
</g>
<!-- n2&#45;&gt;n3 -->
<g id="edge6" class="edge">
<title>n2&#45;&gt;n3</title>
<path fill="none" stroke="#cc3333" stroke-width="2" d="M222.77,-183.45C230.24,-171.66 239.45,-157.13 247.67,-144.15"/>
<polygon fill="#cc3333" stroke="#cc3333" stroke-width="2" points="250.56,-146.13 252.96,-135.81 244.65,-142.38 250.56,-146.13"/>
<text xml:space="preserve" text-anchor="middle" x="258.65" y="-155.5" font-family="Helvetica,sans-Serif" font-size="10.00">not sig</text>
</g>
<!-- leaf3 -->
<g id="node8" class="node">
<title>leaf3</title>
<polygon fill="#f0f0f0" stroke="black" points="260,-36 206,-36 206,0 260,0 260,-36"/>
<text xml:space="preserve" text-anchor="middle" x="233" y="-14.3" font-family="Helvetica,sans-Serif" font-size="11.00">SDM</text>
</g>
<!-- n3&#45;&gt;leaf3 -->
<g id="edge7" class="edge">
<title>n3&#45;&gt;leaf3</title>
<path fill="none" stroke="#888888" d="M259.54,-84.98C254.85,-73.33 249.16,-59.17 244.24,-46.96"/>
<polygon fill="#888888" stroke="#888888" points="247.55,-45.79 240.57,-37.82 241.06,-48.41 247.55,-45.79"/>
<text xml:space="preserve" text-anchor="middle" x="259.2" y="-57.25" font-family="Helvetica,sans-Serif" font-size="10.00">sig</text>
</g>
<!-- leaf4 -->
<g id="node9" class="node">
<title>leaf4</title>
<polygon fill="#9be29b" stroke="black" stroke-width="2" points="332,-36 278,-36 278,0 332,0 332,-36"/>
<text xml:space="preserve" text-anchor="middle" x="305" y="-14.3" font-family="Helvetica,sans-Serif" font-size="11.00">SAR</text>
</g>
<!-- n3&#45;&gt;leaf4 -->
<g id="edge8" class="edge">
<title>n3&#45;&gt;leaf4</title>
<path fill="none" stroke="#cc3333" stroke-width="2" d="M278.46,-84.98C282.96,-73.8 288.38,-60.32 293.15,-48.46"/>
<polygon fill="#cc3333" stroke="#cc3333" stroke-width="2" points="296.38,-49.81 296.86,-39.23 289.88,-47.2 296.38,-49.81"/>
<text xml:space="preserve" text-anchor="middle" x="306.72" y="-57.25" font-family="Helvetica,sans-Serif" font-size="10.00">not sig</text>
</g>
</g>
</svg>